<svg width="25" height="25" viewBox="0 0 25 25" fill="none" xmlns="http://www.w3.org/2000/svg">
<path d="M16.4115 14.3228C16.4802 14.2491 16.563 14.19 16.655 14.149C16.747 14.108 16.8463 14.086 16.947 14.0842C17.0477 14.0824 17.1477 14.1009 17.2411 14.1386C17.3345 14.1764 17.4193 14.2325 17.4905 14.3037C17.5618 14.375 17.6179 14.4598 17.6556 14.5532C17.6933 14.6466 17.7119 14.7466 17.7101 14.8473C17.7083 14.948 17.6863 15.0473 17.6453 15.1393C17.6043 15.2313 17.5452 15.3141 17.4715 15.3828L13.4715 19.3828C13.3309 19.5232 13.1402 19.6021 12.9415 19.6021C12.7427 19.6021 12.5521 19.5232 12.4115 19.3828L8.4115 15.3828C8.33781 15.3141 8.27871 15.2313 8.23772 15.1393C8.19672 15.0473 8.17468 14.948 8.17291 14.8473C8.17113 14.7466 8.18965 14.6466 8.22737 14.5532C8.2651 14.4598 8.32124 14.375 8.39246 14.3037C8.46368 14.2325 8.54851 14.1764 8.6419 14.1386C8.73529 14.1009 8.83532 14.0824 8.93602 14.0842C9.03672 14.086 9.13604 14.108 9.22804 14.149C9.32003 14.19 9.40283 14.2491 9.4715 14.3228L12.1915 17.0428L12.1915 7.35277C12.1915 7.15386 12.2705 6.96309 12.4112 6.82244C12.5518 6.68179 12.7426 6.60277 12.9415 6.60277C13.1404 6.60277 13.3312 6.68179 13.4718 6.82244C13.6125 6.96309 13.6915 7.15386 13.6915 7.35277L13.6915 17.0428L16.4115 14.3228Z" fill="#859CD3"/>
</svg>
