<svg width="25" height="25" viewBox="0 0 25 25" fill="none" xmlns="http://www.w3.org/2000/svg">
<path d="M8.78 10.8828C8.71134 10.9565 8.62854 11.0156 8.53654 11.0566C8.44454 11.0976 8.34523 11.1196 8.24452 11.1214C8.14382 11.1232 8.04379 11.1046 7.9504 11.0669C7.85701 11.0292 7.77218 10.9731 7.70096 10.9018C7.62974 10.8306 7.5736 10.7458 7.53588 10.6524C7.49816 10.559 7.47963 10.459 7.48141 10.3583C7.48319 10.2576 7.50523 10.1583 7.54622 10.0663C7.58721 9.97426 7.64631 9.89146 7.72 9.82279L11.72 5.82279C11.8606 5.68234 12.0513 5.60345 12.25 5.60345C12.4488 5.60345 12.6394 5.68234 12.78 5.82279L16.78 9.82279C16.8537 9.89146 16.9128 9.97426 16.9538 10.0663C16.9948 10.1583 17.0168 10.2576 17.0186 10.3583C17.0204 10.459 17.0018 10.559 16.9641 10.6524C16.9264 10.7458 16.8703 10.8306 16.799 10.9018C16.7278 10.9731 16.643 11.0292 16.5496 11.0669C16.4562 11.1046 16.3562 11.1232 16.2555 11.1214C16.1548 11.1196 16.0555 11.0976 15.9635 11.0566C15.8715 11.0156 15.7887 10.9565 15.72 10.8828L13 8.16279V17.8528C13 18.0517 12.921 18.2425 12.7803 18.3831C12.6397 18.5238 12.4489 18.6028 12.25 18.6028C12.0511 18.6028 11.8603 18.5238 11.7197 18.3831C11.579 18.2425 11.5 18.0517 11.5 17.8528V8.16279L8.78 10.8828Z" fill="#003CCE"/>
</svg>
