<svg width="42" height="43" viewBox="0 0 42 43" fill="none" xmlns="http://www.w3.org/2000/svg">
<path d="M23.5724 15.7685C23.4435 15.6483 23.3401 15.5034 23.2683 15.3424C23.1966 15.1814 23.158 15.0076 23.1549 14.8314C23.1518 14.6552 23.1842 14.4801 23.2502 14.3167C23.3162 14.1532 23.4145 14.0048 23.5391 13.8801C23.6638 13.7555 23.8122 13.6573 23.9756 13.5913C24.1391 13.5252 24.3141 13.4928 24.4903 13.4959C24.6666 13.499 24.8404 13.5376 25.0014 13.6093C25.1624 13.6811 25.3073 13.7845 25.4274 13.9135L32.4274 20.9135C32.6732 21.1596 32.8113 21.4932 32.8113 21.841C32.8113 22.1888 32.6732 22.5224 32.4274 22.7685L25.4274 29.7685C25.3073 29.8974 25.1624 30.0008 25.0014 30.0726C24.8404 30.1443 24.6666 30.1829 24.4903 30.186C24.3141 30.1891 24.1391 30.1567 23.9756 30.0907C23.8122 30.0247 23.6638 29.9264 23.5391 29.8018C23.4145 29.6772 23.3162 29.5287 23.2502 29.3653C23.1842 29.2018 23.1518 29.0268 23.1549 28.8506C23.158 28.6743 23.1966 28.5005 23.2683 28.3395C23.3401 28.1785 23.4435 28.0336 23.5724 27.9135L28.3324 23.1535L11.3749 23.1535C11.0268 23.1535 10.693 23.0152 10.4469 22.769C10.2007 22.5229 10.0624 22.1891 10.0624 21.841C10.0624 21.4929 10.2007 21.159 10.4469 20.9129C10.693 20.6667 11.0268 20.5285 11.3749 20.5285L28.3324 20.5285L23.5724 15.7685Z" fill="#262626"/>
</svg>
