<svg width="25" height="25" viewBox="0 0 25 25" fill="none" xmlns="http://www.w3.org/2000/svg">
<path d="M10.083 19.7725H19.583C20.3787 19.7725 21.1417 19.4564 21.7043 18.8938C22.2669 18.3312 22.583 17.5681 22.583 16.7725V12.2725H11.143L12.863 13.9925C12.9367 14.0611 12.9958 14.1439 13.0368 14.2359C13.0778 14.3279 13.0998 14.4272 13.1016 14.5279C13.1034 14.6286 13.0849 14.7287 13.0471 14.8221C13.0094 14.9154 12.9533 15.0003 12.882 15.0715C12.8108 15.1427 12.726 15.1989 12.6326 15.2366C12.5392 15.2743 12.4392 15.2928 12.3385 15.2911C12.2378 15.2893 12.1385 15.2672 12.0465 15.2262C11.9545 15.1853 11.8717 15.1261 11.803 15.0525L10.083 13.3325V19.7725ZM8.58301 10.7725V9.77246C8.58301 9.57468 8.52436 9.38134 8.41448 9.21689C8.3046 9.05244 8.14842 8.92427 7.96569 8.84858C7.78297 8.77289 7.5819 8.75309 7.38792 8.79168C7.19394 8.83026 7.01575 8.9255 6.8759 9.06535C6.73605 9.20521 6.64081 9.38339 6.60222 9.57737C6.56364 9.77135 6.58344 9.97242 6.65913 10.1551C6.73482 10.3379 6.86299 10.494 7.02744 10.6039C7.19189 10.7138 7.38523 10.7725 7.58301 10.7725H8.58301ZM10.083 9.77246V10.7725H11.083C11.2808 10.7725 11.4741 10.7138 11.6386 10.6039C11.803 10.494 11.9312 10.3379 12.0069 10.1551C12.0826 9.97242 12.1024 9.77135 12.0638 9.57737C12.0252 9.38339 11.93 9.20521 11.7901 9.06535C11.6503 8.9255 11.4721 8.83026 11.2781 8.79168C11.0841 8.75309 10.883 8.77289 10.7003 8.84858C10.5176 8.92427 10.3614 9.05244 10.2515 9.21689C10.1417 9.38134 10.083 9.57468 10.083 9.77246ZM10.083 7.48046V4.77246H19.583C20.3787 4.77246 21.1417 5.08853 21.7043 5.65114C22.2669 6.21375 22.583 6.97681 22.583 7.77246V10.7725H13.375C13.5763 10.3118 13.6341 9.80121 13.5408 9.30724C13.4476 8.81327 13.2075 8.3589 12.852 8.00343C12.4966 7.64796 12.0422 7.40792 11.5482 7.31462C11.0543 7.22133 10.5436 7.27912 10.083 7.48046ZM8.58301 4.77246V7.48046C8.12238 7.27912 7.61176 7.22133 7.11779 7.31462C6.62382 7.40792 6.16944 7.64796 5.81398 8.00343C5.45851 8.3589 5.21846 8.81327 5.12517 9.30724C5.03188 9.80121 5.08967 10.3118 5.29101 10.7725H2.58301V7.77246C2.58301 6.97681 2.89908 6.21375 3.46169 5.65114C4.0243 5.08853 4.78736 4.77246 5.58301 4.77246H8.58301ZM8.58301 13.3325V19.7725H5.58301C4.78736 19.7725 4.0243 19.4564 3.46169 18.8938C2.89908 18.3312 2.58301 17.5681 2.58301 16.7725V12.2725H7.52301L5.80301 13.9925C5.72932 14.0611 5.67022 14.1439 5.62923 14.2359C5.58823 14.3279 5.56619 14.4272 5.56442 14.5279C5.56264 14.6286 5.58116 14.7287 5.61889 14.8221C5.65661 14.9154 5.71275 15.0003 5.78397 15.0715C5.85519 15.1427 5.94002 15.1989 6.03341 15.2366C6.1268 15.2743 6.22683 15.2928 6.32753 15.2911C6.42823 15.2893 6.52755 15.2672 6.61955 15.2262C6.71155 15.1853 6.79435 15.1261 6.86301 15.0525L8.58301 13.3325Z" fill="#262626"/>
</svg>
