<svg width="24" height="25" viewBox="0 0 24 25" fill="none" xmlns="http://www.w3.org/2000/svg">
<path d="M12 3.09106C9.61306 3.09106 7.32388 4.03928 5.63605 5.7271C3.94822 7.41493 3.00001 9.70412 3.00001 12.0911C3.00001 14.4881 3.93501 16.6641 5.46301 18.2771L5.96701 18.8091L4.70001 21.0911H12C13.1819 21.0911 14.3522 20.8583 15.4442 20.406C16.5361 19.9537 17.5282 19.2908 18.364 18.455C19.1997 17.6193 19.8626 16.6271 20.3149 15.5352C20.7672 14.4433 21 13.273 21 12.0911C21 10.9092 20.7672 9.73884 20.3149 8.64691C19.8626 7.55498 19.1997 6.56283 18.364 5.7271C17.5282 4.89138 16.5361 4.22844 15.4442 3.77615C14.3522 3.32386 13.1819 3.09106 12 3.09106ZM1.00001 12.0911C1.00001 6.01606 5.92501 1.09106 12 1.09106C18.075 1.09106 23 6.01606 23 12.0911C23 18.1661 18.075 23.0911 12 23.0911H1.30001L3.52001 19.0971C1.88814 17.1274 0.996659 14.6489 1.00001 12.0911Z" fill="#859CD3"/>
</svg>
