<svg width="36" height="36" viewBox="0 0 36 36" fill="none" xmlns="http://www.w3.org/2000/svg">
<path d="M18.1738 35.7911C27.8388 35.7911 35.6738 27.9561 35.6738 18.2911C35.6738 8.62615 27.8388 0.791138 18.1738 0.791138C8.50885 0.791138 0.673828 8.62615 0.673828 18.2911C0.673828 27.9561 8.50885 35.7911 18.1738 35.7911Z" fill="#262626"/>
<path d="M10.8829 23.4542L9.49492 27.7644L13.571 25.9333C17.1287 28.0654 21.811 27.4885 24.7332 24.3196C28.0777 20.6908 27.8519 15.0344 24.219 11.69C20.5861 8.34548 14.9339 8.57123 11.5894 12.2042C8.66298 15.3814 8.45395 20.0846 10.8871 23.4584L10.8829 23.4542Z" stroke="white" stroke-width="2" stroke-miterlimit="10" stroke-linejoin="round"/>
<path d="M17.3545 19.098C17.6973 19.4408 18.3871 20.0888 18.8595 20.2058C19.3319 20.3229 19.6789 20.0595 20.0468 19.7418C20.2391 19.5746 20.3269 19.3822 20.7952 19.2986C21.2801 19.2108 22.6513 20.1222 22.9816 20.511C23.9808 21.6941 23.0861 23.0236 21.7358 23.1364C20.0677 23.2744 17.8395 21.7568 16.2717 20.1849C14.704 18.613 13.1823 16.3889 13.3202 14.7209C13.4331 13.3705 14.7584 12.4759 15.9457 13.4751C16.3345 13.8053 17.2458 15.1724 17.158 15.6615C17.0744 16.1297 16.8821 16.2175 16.7149 16.4098C16.3972 16.7777 16.138 17.1247 16.2508 17.5971C16.3679 18.0695 17.0159 18.7593 17.3587 19.1021L17.3545 19.098Z" fill="white"/>
</svg>
