<svg width="31" height="30" viewBox="0 0 31 30" fill="none" xmlns="http://www.w3.org/2000/svg">
<g clip-path="url(#clip0_2001_93400)">
<path d="M15.6667 0C7.38459 0 0.666687 6.7179 0.666687 15C0.666687 23.2821 7.38459 30 15.6667 30C23.9488 30 30.6667 23.2821 30.6667 15C30.6667 6.7179 23.9488 0 15.6667 0ZM22.8186 9.75588C22.7734 10.3617 22.4298 12.4864 22.0862 14.783C21.5618 18.038 21.0012 21.5913 21.0012 21.5913C21.0012 21.5913 20.9108 22.5859 20.1784 22.7577C19.4461 22.9295 18.2255 22.1519 18.0085 21.9801C17.8367 21.8535 14.7535 19.9005 13.6323 18.9421C13.3249 18.6799 12.9813 18.1646 13.6775 17.5588C15.2417 16.1302 17.1043 14.349 18.2255 13.2278C18.7499 12.7034 19.2652 11.4919 17.0953 12.9656C14.0211 15.0904 10.9831 17.0796 10.9831 17.0796C10.9831 17.0796 10.2869 17.5136 8.98495 17.1248C7.68296 16.736 6.16397 16.2116 6.16397 16.2116C6.16397 16.2116 5.12419 15.5606 6.89634 14.8644C6.89634 14.8644 14.3918 11.7902 16.9958 10.7052C17.9904 10.2712 21.3719 8.88788 21.3719 8.88788C21.3719 8.88788 22.9361 8.2821 22.8005 9.75588H22.8186Z" fill="#262626"/>
</g>
<defs>
<clipPath id="clip0_2001_93400">
<rect width="30" height="30" fill="white" transform="translate(0.666687)"/>
</clipPath>
</defs>
</svg>
