<svg width="25" height="25" viewBox="0 0 25 25" fill="none" xmlns="http://www.w3.org/2000/svg">
<path d="M10.147 9.50246L10.662 11.3655C11.147 13.1205 11.389 13.9985 12.102 14.3975C12.815 14.7975 13.72 14.5615 15.53 14.0915L17.45 13.5915C19.26 13.1215 20.165 12.8865 20.577 12.1955C20.989 11.5035 20.747 10.6255 20.261 8.87046L19.747 7.00846C19.262 5.25246 19.019 4.37446 18.307 3.97546C17.593 3.57546 16.688 3.81146 14.878 4.28246L12.958 4.78046C11.148 5.25046 10.243 5.48646 9.83198 6.17846C9.41998 6.86946 9.66198 7.74746 10.147 9.50246Z" fill="#262626"/>
<path d="M2.85995 6.01946C2.8863 5.92448 2.93111 5.83563 2.99182 5.75798C3.05252 5.68034 3.12794 5.61542 3.21376 5.56694C3.29957 5.51846 3.3941 5.48737 3.49194 5.47545C3.58978 5.46353 3.68901 5.471 3.78395 5.49746L5.48695 5.96946C5.93829 6.09204 6.35017 6.32946 6.68245 6.65858C7.01473 6.98771 7.25607 7.39731 7.38295 7.84746L9.53395 15.6335L9.69195 16.1805C10.3297 16.4155 10.8671 16.8629 11.214 17.4475L11.524 17.3515L20.394 15.0465C20.4893 15.0216 20.5886 15.0158 20.6862 15.0294C20.7837 15.0429 20.8777 15.0756 20.9627 15.1255C21.0476 15.1753 21.1219 15.2414 21.1814 15.32C21.2408 15.3986 21.2841 15.4881 21.309 15.5835C21.3338 15.6788 21.3396 15.7781 21.326 15.8757C21.3125 15.9733 21.2798 16.0672 21.23 16.1522C21.1801 16.2371 21.114 16.3115 21.0354 16.3709C20.9568 16.4303 20.8673 16.4736 20.772 16.4985L11.935 18.7945L11.605 18.8965C11.599 20.1665 10.722 21.3285 9.39495 21.6725C7.80495 22.0865 6.16995 21.1705 5.74395 19.6285C5.31795 18.0855 6.26195 16.4995 7.85195 16.0865C7.9303 16.0663 8.00935 16.0489 8.08895 16.0345L5.93695 8.24646C5.87902 8.04637 5.77029 7.86468 5.62135 7.71906C5.4724 7.57344 5.2883 7.46885 5.08695 7.41546L3.38295 6.94246C3.288 6.91621 3.19914 6.87151 3.12146 6.81092C3.04378 6.75032 2.9788 6.67502 2.93024 6.58931C2.88167 6.50359 2.85046 6.40915 2.8384 6.31137C2.82634 6.2136 2.83367 6.1144 2.85995 6.01946Z" fill="#262626"/>
</svg>
