<svg width="25" height="25" viewBox="0 0 25 25" fill="none" xmlns="http://www.w3.org/2000/svg">
<path d="M11.825 12.5879L14.2 10.2129C14.3833 10.0296 14.475 9.80022 14.475 9.52489C14.475 9.24956 14.3833 9.01222 14.2 8.81289C14 8.61289 13.7623 8.51289 13.487 8.51289C13.2117 8.51289 12.9743 8.61289 12.775 8.81289L9.7 11.8879C9.5 12.0879 9.4 12.3212 9.4 12.5879C9.4 12.8546 9.5 13.0879 9.7 13.2879L12.8 16.3879C13 16.5879 13.2333 16.6836 13.5 16.6749C13.7667 16.6662 14 16.5622 14.2 16.3629C14.3833 16.1629 14.4793 15.9296 14.488 15.6629C14.4967 15.3962 14.4007 15.1629 14.2 14.9629L11.825 12.5879ZM12.5 2.58789C13.8833 2.58789 15.1833 2.85056 16.4 3.37589C17.6167 3.90122 18.675 4.61356 19.575 5.51289C20.475 6.41289 21.1873 7.47122 21.712 8.68789C22.2367 9.90456 22.4993 11.2046 22.5 12.5879C22.5 13.9712 22.2373 15.2712 21.712 16.4879C21.1867 17.7046 20.4743 18.7629 19.575 19.6629C18.675 20.5629 17.6167 21.2752 16.4 21.7999C15.1833 22.3246 13.8833 22.5872 12.5 22.5879C11.1167 22.5879 9.81667 22.3252 8.6 21.7999C7.38333 21.2746 6.325 20.5622 5.425 19.6629C4.525 18.7629 3.81233 17.7046 3.287 16.4879C2.76167 15.2712 2.49933 13.9712 2.5 12.5879C2.5 11.2046 2.76267 9.90456 3.288 8.68789C3.81333 7.47122 4.52567 6.41289 5.425 5.51289C6.325 4.61289 7.38333 3.90022 8.6 3.37489C9.81667 2.84956 11.1167 2.58722 12.5 2.58789ZM12.5 4.58789C10.2667 4.58789 8.375 5.36289 6.825 6.91289C5.275 8.46289 4.5 10.3546 4.5 12.5879C4.5 14.8212 5.275 16.7129 6.825 18.2629C8.375 19.8129 10.2667 20.5879 12.5 20.5879C14.7333 20.5879 16.625 19.8129 18.175 18.2629C19.725 16.7129 20.5 14.8212 20.5 12.5879C20.5 10.3546 19.725 8.46289 18.175 6.91289C16.625 5.36289 14.7333 4.58789 12.5 4.58789Z" fill="#262626"/>
</svg>
