<svg width="24" height="25" viewBox="0 0 24 25" fill="none" xmlns="http://www.w3.org/2000/svg">
<path d="M12 5.35254C7 5.35254 2.73 8.46254 1 12.8525C2.73 17.2425 7 20.3525 12 20.3525C17 20.3525 21.27 17.2425 23 12.8525C21.27 8.46254 17 5.35254 12 5.35254ZM12 17.8525C9.24 17.8525 7 15.6125 7 12.8525C7 10.0925 9.24 7.85254 12 7.85254C14.76 7.85254 17 10.0925 17 12.8525C17 15.6125 14.76 17.8525 12 17.8525ZM12 9.85254C10.34 9.85254 9 11.1925 9 12.8525C9 14.5125 10.34 15.8525 12 15.8525C13.66 15.8525 15 14.5125 15 12.8525C15 11.1925 13.66 9.85254 12 9.85254Z" fill="#859CD3"/>
</svg>
