<svg width="24" height="25" viewBox="0 0 24 25" fill="none" xmlns="http://www.w3.org/2000/svg">
<path d="M11.3251 12.6704L13.7001 10.2954C13.8835 10.1121 13.9751 9.88274 13.9751 9.60741C13.9751 9.33208 13.8835 9.09474 13.7001 8.89541C13.5001 8.69541 13.2625 8.59541 12.9871 8.59541C12.7118 8.59541 12.4745 8.69541 12.2751 8.89541L9.20012 11.9704C9.00012 12.1704 8.90012 12.4037 8.90012 12.6704C8.90012 12.9371 9.00012 13.1704 9.20012 13.3704L12.3001 16.4704C12.5001 16.6704 12.7335 16.7661 13.0001 16.7574C13.2668 16.7487 13.5001 16.6447 13.7001 16.4454C13.8835 16.2454 13.9795 16.0121 13.9881 15.7454C13.9968 15.4787 13.9008 15.2454 13.7001 15.0454L11.3251 12.6704ZM12.0001 2.67041C13.3835 2.67041 14.6835 2.93308 15.9001 3.45841C17.1168 3.98374 18.1751 4.69608 19.0751 5.59541C19.9751 6.49541 20.6875 7.55374 21.2121 8.77041C21.7368 9.98708 21.9995 11.2871 22.0001 12.6704C22.0001 14.0537 21.7375 15.3537 21.2121 16.5704C20.6868 17.7871 19.9745 18.8454 19.0751 19.7454C18.1751 20.6454 17.1168 21.3577 15.9001 21.8824C14.6835 22.4071 13.3835 22.6697 12.0001 22.6704C10.6168 22.6704 9.31679 22.4077 8.10012 21.8824C6.88346 21.3571 5.82512 20.6447 4.92512 19.7454C4.02512 18.8454 3.31246 17.7871 2.78712 16.5704C2.26179 15.3537 1.99946 14.0537 2.00012 12.6704C2.00012 11.2871 2.26279 9.98708 2.78812 8.77041C3.31346 7.55374 4.02579 6.49541 4.92512 5.59541C5.82512 4.69541 6.88346 3.98274 8.10012 3.45741C9.31679 2.93208 10.6168 2.66974 12.0001 2.67041ZM12.0001 4.67041C9.76679 4.67041 7.87512 5.44541 6.32512 6.99541C4.77512 8.54541 4.00012 10.4371 4.00012 12.6704C4.00012 14.9037 4.77512 16.7954 6.32512 18.3454C7.87512 19.8954 9.76679 20.6704 12.0001 20.6704C14.2335 20.6704 16.1251 19.8954 17.6751 18.3454C19.2251 16.7954 20.0001 14.9037 20.0001 12.6704C20.0001 10.4371 19.2251 8.54541 17.6751 6.99541C16.1251 5.44541 14.2335 4.67041 12.0001 4.67041Z" fill="#859CD3"/>
</svg>
