<svg
width="24" height="25" viewBox="0 0 24 25" fill="none" xmlns="http://www.w3.org/2000/svg">
<path d="M11 15.0457H13V17.0457H11V15.0457ZM11 7.04565H13V13.0457H11V7.04565ZM11.99 2.04565C6.47 2.04565 2 6.52565 2 12.0457C2 17.5657 6.47 22.0457 11.99 22.0457C17.52 22.0457 22 17.5657 22 12.0457C22 6.52565 17.52 2.04565 11.99 2.04565ZM12 20.0457C7.58 20.0457 4 16.4657 4 12.0457C4 7.62565 7.58 4.04565 12 4.04565C16.42 4.04565 20 7.62565 20 12.0457C20 16.4657 16.42 20.0457 12 20.0457Z" fill="#003CCE"/>
</svg>
