<svg width="24" height="25" viewBox="0 0 24 25" fill="none" xmlns="http://www.w3.org/2000/svg">
<path d="M13.11 5.81106L12.54 8.70106C12.42 9.29106 12.58 9.90106 12.96 10.3611C13.34 10.8211 13.9 11.0911 14.5 11.0911H20V12.1711L17.43 18.0911H9.34C9.25062 18.0885 9.1656 18.0519 9.10237 17.9887C9.03915 17.9255 9.00252 17.8404 9 17.7511V9.91106L13.11 5.81106ZM14 2.09106L7.59 8.50106C7.21 8.88106 7 9.39106 7 9.92106V17.7511C7 19.0411 8.05 20.0911 9.34 20.0911H17.44C18.15 20.0911 18.8 19.7211 19.16 19.1211L21.83 12.9711C21.94 12.7211 22 12.4511 22 12.1711V11.0911C22 9.99106 21.1 9.09106 20 9.09106H14.5L15.42 4.44106C15.47 4.22106 15.44 3.98106 15.34 3.78106C15.1126 3.33068 14.8156 2.91895 14.46 2.56106L14 2.09106ZM4 9.09106H2V20.0911H4C4.55 20.0911 5 19.6411 5 19.0911V10.0911C5 9.54106 4.55 9.09106 4 9.09106Z" fill="#859CD3"/>
</svg>
