<svg width="195" height="46" viewBox="0 0 195 46" fill="none" xmlns="http://www.w3.org/2000/svg">
<path fill-rule="evenodd" clip-rule="evenodd" d="M49.0981 21.5537L49.7094 19.4429L47.5699 19.5211C47.4171 19.5211 46.1181 19.5211 44.8191 18.583C44.8955 18.583 44.9719 18.583 45.1247 18.583C46.4237 18.583 47.6463 17.8012 48.1812 16.6285L49.0981 14.5959C47.952 14.5959 46.8822 14.4395 46.8822 14.4395C46.8822 14.4395 46.0416 14.3614 45.1247 13.3451C44.437 12.6415 43.5965 12.2506 42.6795 12.2506C42.2975 12.2506 41.9154 12.3287 41.6097 12.4069C41.6862 12.2506 41.6862 12.0942 41.7626 11.8597C42.0682 9.90524 40.8456 8.41986 40.8456 8.41986L39.241 6.38724L38.2476 8.73258C38.2476 8.73258 38.0184 9.27982 37.5599 9.59253C37.4071 8.88893 37.1014 8.10715 36.4137 7.32538C35.1147 5.91818 33.4336 5.68364 32.5931 5.68364C32.211 5.68364 31.9054 5.76182 31.829 5.76182L29.9187 6.15271C29.9951 5.68365 30.3007 4.98005 30.6828 4.27645L31.7526 2.55654L29.0781 2.86925L28.2376 0.992984L26.633 2.00929L25.1047 0.44574L23.5765 2.00929L21.8954 1.14934L21.1313 2.94743L18.4569 2.63472L19.5266 4.35462C19.9851 5.05822 20.2143 5.84 20.2907 6.23089L18.4569 5.84H18.3804C18.304 5.84 17.9984 5.76182 17.6163 5.76182C16.7758 5.76182 15.1711 5.99636 13.7957 7.40355C13.108 8.18533 12.7259 8.96711 12.6495 9.67071C12.1911 9.43617 11.9618 8.88893 11.9618 8.88893L10.9685 6.5436L9.36381 8.57622C9.13457 8.81075 8.21763 10.218 8.44686 11.9379C8.44686 12.0942 8.52328 12.2506 8.59969 12.4851C8.29404 12.2506 7.91198 12.1724 7.52992 12.1724C6.61297 12.1724 5.77244 12.5633 5.08473 13.2669C4.16778 14.2832 3.32725 14.3614 3.32725 14.3614C3.32725 14.3614 2.48672 14.5177 1.1113 14.5177L2.02824 16.6285C2.56313 17.8012 3.78572 18.583 5.08473 18.583C5.16114 18.583 5.23755 18.583 5.39038 18.583C4.16778 19.5211 2.86878 19.5211 2.71595 19.5211L0.5 19.4429L1.18771 21.5537C1.49336 22.6482 2.63954 24.4463 4.70267 24.6026C4.47343 25.619 3.93855 26.7134 2.86878 27.1825L1.18771 27.8079L2.02824 29.3715C2.48672 30.2314 3.70931 31.1696 5.31397 31.1696C5.69603 31.1696 6.00168 31.1696 6.38374 31.0914C6.46015 31.4823 6.53656 31.8732 6.68939 32.2641C7.14786 33.7494 6.7658 34.8439 6.7658 34.8439L6.00168 36.5638L7.75916 37.0329C7.75916 37.0329 8.29404 37.1893 8.98175 37.1893C9.2874 37.1893 9.59305 37.1893 9.82228 37.1111C10.0515 37.0329 10.2043 37.0329 10.4336 36.9547C10.6628 37.3456 10.9685 37.7365 11.2741 38.1274C12.4203 39.3001 14.025 39.9255 16.0117 39.9255H17.4635L14.4834 41.1763L16.7758 42.2708C17.6163 42.6617 18.6097 43.2089 19.603 43.5216L19.2974 44.3034L20.0615 44.6943C20.1379 44.6943 21.6662 45.3979 24.1114 45.5543C24.1114 45.5543 24.7227 45.5543 25.0283 45.5543C25.334 45.5543 25.9452 45.5543 25.9452 45.5543C28.4669 45.3979 29.9187 44.6943 29.9951 44.6943L30.7592 44.3034L30.4536 43.5216C31.4469 43.1308 32.5167 42.6617 33.2808 42.2708L35.4968 41.1763L32.5167 39.9255H33.9685C36.0317 39.9255 37.6363 39.3001 38.7061 38.1274C39.0117 37.8147 39.3174 37.4238 39.5466 36.9547C39.6994 37.0329 39.9287 37.1111 40.1579 37.1111C40.4636 37.1893 40.6928 37.1893 40.9984 37.1893C41.6862 37.1893 42.221 37.0329 42.221 37.0329L43.9785 36.5638L43.2144 34.9221C43.2144 34.8439 42.7559 33.8276 43.2908 32.3422C43.4436 31.9513 43.52 31.5605 43.5965 31.1696C43.9021 31.2477 44.2842 31.2478 44.6662 31.2478C46.7294 31.2478 47.7991 29.7624 47.952 29.3715L48.7925 27.8079L47.1878 27.1043C46.0416 26.6353 45.5832 25.5408 45.3539 24.5245C47.6463 24.3681 48.7161 22.57 49.0981 21.5537Z" fill="#D8E8FF"/>
<path fill-rule="evenodd" clip-rule="evenodd" d="M25.1049 6.85632C23.4239 6.85632 22.1249 7.40357 21.8956 8.10717L25.1049 9.43619L28.3907 8.10717C28.085 7.40357 26.786 6.85632 25.1049 6.85632Z" fill="#D8E8FF"/>
<path fill-rule="evenodd" clip-rule="evenodd" d="M25.1806 41.6454C24.1108 41.6454 22.659 41.4109 21.9713 41.2545L21.1307 43.5217C21.6656 43.7562 23.4995 44.0689 25.1042 44.0689C26.7088 44.0689 28.5427 43.678 29.0776 43.5217L28.2371 41.2545C27.6258 41.4109 26.1739 41.6454 25.1806 41.6454Z" fill="#D8E8FF"/>
<path fill-rule="evenodd" clip-rule="evenodd" d="M31.3711 39.3783C30.7598 39.7692 29.3844 40.2383 28.6202 40.551L29.3079 42.4272C30.5305 42.1145 31.5239 41.6455 32.3644 41.2546L30.989 40.7855L31.3711 39.3783Z" fill="#D8E8FF"/>
<path fill-rule="evenodd" clip-rule="evenodd" d="M18.8385 39.3783L19.2205 40.7855L17.8451 41.2546C18.6856 41.7236 19.679 42.1145 20.9016 42.4272L21.5893 40.551C20.8252 40.2383 19.4497 39.691 18.8385 39.3783Z" fill="#D8E8FF"/>
<path fill-rule="evenodd" clip-rule="evenodd" d="M25.1032 4.66732C26.4022 4.66732 27.6248 4.98003 28.6182 5.52727C28.6946 5.21456 28.8474 4.82367 29.0002 4.43278L28.6182 4.51096L28.2361 4.58914L28.0833 4.19825L27.6248 3.10376L26.7079 3.57283L26.3258 3.72918L26.0966 3.57283L25.1032 2.55652L24.1098 3.57283L23.8042 3.88554L23.4221 3.72918L22.658 3.18194L22.1995 4.27643L22.0467 4.66732L21.6647 4.58914L21.2826 4.51096C21.4354 4.90185 21.5882 5.29274 21.6647 5.60545C22.5816 4.98003 23.8042 4.66732 25.1032 4.66732Z" fill="#D8E8FF"/>
<path fill-rule="evenodd" clip-rule="evenodd" d="M44.6661 16.8629C44.8189 16.9411 44.9718 16.9411 45.201 16.9411C45.8887 16.9411 46.6528 16.4721 46.8821 15.9248C46.8821 15.9248 45.5831 15.8466 44.1312 14.3613C43.6727 13.8922 43.2143 13.7358 42.7558 13.7358C42.1445 13.7358 41.6096 14.0486 41.6096 14.0486C43.2907 15.0649 43.6727 16.5502 44.6661 16.8629Z" fill="#D8E8FF"/>
<path fill-rule="evenodd" clip-rule="evenodd" d="M5.08573 17.0195C5.23855 17.0195 5.39138 17.0195 5.62062 16.9413C6.61397 16.6286 6.99603 15.0651 8.6771 14.1269C8.6771 14.1269 8.21863 13.8142 7.53092 13.8142C7.14886 13.8142 6.61397 13.9706 6.1555 14.4396C4.70367 15.925 3.40466 16.0032 3.40466 16.0032C3.6339 16.4722 4.32161 17.0195 5.08573 17.0195Z" fill="#D8E8FF"/>
<path fill-rule="evenodd" clip-rule="evenodd" d="M44.1309 27.7298C42.8319 27.0262 41.9914 25.2281 41.7621 24.6027C41.5329 28.1207 39.8518 30.6224 37.8651 32.9677C36.8717 34.2186 36.4897 35.3912 36.4897 35.3912C36.4897 35.3912 36.7189 34.0622 37.5594 32.9677C39.3933 30.7006 41.1508 27.8862 41.3036 24.6027C41.3801 22.3356 40.8452 20.4593 39.9282 18.9739C40.4631 20.5375 40.3867 22.4919 38.6292 24.29C38.6292 24.29 41.9914 20.1466 37.2538 15.925C35.3435 14.2833 33.2804 13.3451 32.2106 12.5633C36.0312 13.8142 37.9415 12.407 37.9415 12.407C36.7189 13.5015 35.1143 13.5015 34.1209 13.3451C34.4265 13.5015 34.6558 13.5797 34.9614 13.8142C38.1707 15.6123 41.1508 18.583 41.6093 22.7264C42.4498 26.7135 44.1309 27.7298 44.1309 27.7298ZM45.1243 23.0392H45.2007C47.0346 23.0392 47.6459 21.0847 47.6459 21.0847C47.3402 21.0847 44.6658 21.0065 42.7555 18.5048C41.5329 16.8631 40.4631 15.4559 38.4764 14.9087H38.2472L38.1707 14.6741C38.0943 14.3614 38.3236 14.0487 38.782 13.736C41.6093 11.8597 39.699 9.43624 39.699 9.43624C39.699 9.43624 38.9349 11.3125 37.101 11.3125C37.0246 11.3125 37.0246 11.3125 36.9482 11.3125C36.7189 11.3125 36.5661 11.3125 36.3369 11.2343L36.0312 11.1561C36.0312 11.1561 36.5661 9.74895 35.3435 8.41993C34.3501 7.48179 33.2804 7.32544 32.5927 7.32544C32.287 7.32544 32.0578 7.40362 32.0578 7.40362C32.6691 8.26357 33.1275 9.59259 32.4398 10.4525C31.8285 11.1561 30.3003 11.2343 30.3003 12.3288C30.3003 12.7979 30.6824 13.3451 31.4465 13.8142C33.7388 15.2996 35.9548 17.1758 36.8717 19.8339C38.0179 23.0392 36.7189 25.2281 34.885 26.479C34.885 26.479 35.4963 27.0262 36.3369 27.1044C36.4897 27.1044 36.6425 27.1044 36.8717 27.1044C38.7056 27.1044 39.6226 26.2444 39.6226 26.2444C39.6226 26.2444 39.4698 27.4171 38.5528 28.5116C37.7123 29.5279 36.5661 30.1533 34.8086 30.1533C34.8086 30.1533 34.7322 31.0133 35.4963 31.7169C35.9548 32.1859 37.101 32.3423 37.101 32.3423C37.101 32.3423 34.9614 32.8114 34.7322 36.0167C34.5794 37.7366 34.1973 38.362 34.1973 38.362C39.0877 38.362 39.0113 34.0622 39.0113 34.0622C39.0113 34.0622 39.3169 35.3131 40.6923 35.7039C40.8452 35.7821 40.998 35.7821 41.2272 35.7821C41.6857 35.7821 42.0678 35.7039 42.0678 35.7039C42.0678 35.7039 41.3801 34.1404 42.0678 31.9514C42.6791 30.1533 42.5262 28.8243 42.5262 28.8243C42.5262 28.8243 43.2139 29.8406 44.8186 29.8406C46.194 29.8406 46.8053 28.7461 46.8053 28.7461C43.5196 27.3389 43.8252 22.8828 43.8252 22.8828C43.8252 22.8828 44.2837 23.0392 45.1243 23.0392Z" fill="#D8E8FF"/>
<path fill-rule="evenodd" clip-rule="evenodd" d="M12.3442 33.0457C10.3575 30.7004 8.67645 28.1987 8.44722 24.6807C8.21798 25.3061 7.37745 27.1042 6.07844 27.8078C6.07844 27.8078 7.75951 26.7915 8.52363 22.7263C9.05851 18.5828 11.9622 15.6121 15.1715 13.814C15.4771 13.6576 15.7828 13.5013 16.012 13.3449C15.0187 13.5013 13.414 13.5013 12.1914 12.4068C12.1914 12.4068 14.1017 13.814 17.9223 12.5632C16.8526 13.2668 14.7894 14.2831 12.8791 15.9248C8.14157 20.1464 11.5037 24.2898 11.5037 24.2898C9.82263 22.4917 9.74622 20.5373 10.2047 18.9737C9.28775 20.4591 8.75286 22.3354 8.82928 24.6025C8.9821 27.886 10.7396 30.7004 12.5735 32.9675C13.4904 34.062 13.6432 35.391 13.6432 35.391C13.6432 35.391 13.414 34.2184 12.3442 33.0457ZM13.1848 32.2639C13.1848 32.2639 14.331 32.1076 14.7894 31.6385C15.5535 30.9349 15.4771 30.075 15.4771 30.075C13.7197 30.075 12.6499 29.4495 11.7329 28.4332C10.816 27.3387 10.6632 26.1661 10.6632 26.1661C10.6632 26.1661 11.5801 27.026 13.414 27.026C13.5668 27.026 13.7197 27.026 13.9489 27.026C14.7894 26.9478 15.4007 26.4006 15.4007 26.4006C13.4904 25.1498 12.1914 23.039 13.3376 19.7555C14.2545 17.1756 16.5469 15.2212 18.7629 13.7358C19.527 13.2668 19.909 12.7195 19.909 12.2504C19.909 11.156 18.3808 11.156 17.7695 10.3742C17.0818 9.51422 17.5403 8.1852 18.1516 7.32525C18.1516 7.32525 17.9223 7.24707 17.6167 7.24707C17.0054 7.24707 15.8592 7.40343 14.9422 8.41974C13.7197 9.74876 14.2545 11.156 14.2545 11.156L13.9489 11.2341C13.7197 11.3123 13.5668 11.3123 13.3376 11.3123C13.2612 11.3123 13.2612 11.3123 13.1848 11.3123C11.4273 11.3123 10.5868 9.43605 10.5868 9.43605C10.5868 9.43605 8.67645 11.8596 11.5037 13.7358C11.9622 14.0485 12.1914 14.3612 12.115 14.674L12.0386 14.9085H11.8094C9.82263 15.4557 8.75286 16.8629 7.53027 18.5047C5.61997 21.0063 2.94554 21.0845 2.63989 21.0845C2.63989 21.0845 3.25119 23.039 5.08508 23.039H5.16149C6.00203 23.039 6.38409 22.6481 6.38409 22.6481C6.38409 22.6481 6.68974 27.1824 3.40401 28.5114C3.40401 28.5114 4.01531 29.6059 5.39073 29.6059C7.0718 29.6059 7.68309 28.5896 7.68309 28.5896C7.68309 28.5896 7.60668 29.9186 8.14157 31.7167C8.82928 33.9057 8.14157 35.4692 8.14157 35.4692C8.14157 35.4692 8.52363 35.5474 8.9821 35.5474C9.13493 35.5474 9.36416 35.5474 9.51699 35.4692C10.8924 35.1565 11.1981 33.8275 11.1981 33.8275C11.1981 33.8275 11.0452 38.1273 16.012 38.1273C16.012 38.1273 15.5535 37.5018 15.4771 35.7819C15.2479 32.6548 13.1848 32.2639 13.1848 32.2639Z" fill="#D8E8FF"/>
<path fill-rule="evenodd" clip-rule="evenodd" d="M24.0352 16.3159H26.3276V17.0977C26.0219 16.785 25.487 16.8632 25.487 16.8632V18.0358C25.487 18.0358 25.487 18.5831 25.7163 18.8958H24.5701C24.7993 18.6613 24.7993 18.0358 24.7993 18.0358V16.8632C24.7993 16.8632 24.2644 16.785 23.9588 17.0977V16.3159H24.0352ZM21.5136 16.3941C21.59 16.4723 21.6664 16.5505 21.7428 16.7068C21.7428 16.7068 21.7428 16.785 21.8193 16.785C21.8957 16.8632 21.9721 17.0195 22.0485 17.0977C22.0485 17.0977 22.0485 17.1759 22.1249 17.1759C22.2013 17.3322 22.2777 17.4104 22.3541 17.5668C23.0418 18.8176 24.188 19.5994 25.1814 19.5994C26.1747 19.5994 27.3209 18.8176 28.0086 17.5668C28.085 17.4104 28.1615 17.2541 28.2379 17.1759C28.2379 17.1759 28.2379 17.1759 28.2379 17.0977C28.3143 17.0195 28.3907 16.8632 28.4671 16.785C28.4671 16.785 28.4671 16.7068 28.5435 16.7068C28.6199 16.6286 28.6963 16.4723 28.7728 16.3941C28.7728 16.3941 28.7728 16.3941 28.8492 16.3159C29.2312 15.925 29.6133 15.6123 30.2246 15.456L29.9953 15.2996L29.002 14.6742L28.0086 14.0488L25.2578 15.6123L22.507 14.0488L21.5136 14.6742L20.3674 15.3778L20.1382 15.5341C20.6731 15.6905 21.0551 16.0032 21.5136 16.3941C21.4372 16.3941 21.4372 16.3941 21.5136 16.3941Z" fill="#D8E8FF"/>
<path fill-rule="evenodd" clip-rule="evenodd" d="M24.2644 11.1561V11.9378L24.1116 11.8597C24.1116 11.8597 23.8823 11.7815 23.5003 11.4688C22.889 10.9997 22.889 10.5306 22.889 10.5306L24.2644 11.1561ZM24.8757 14.7522V9.9834L21.8956 8.88892L22.6598 13.5014L24.8757 14.7522Z" fill="#D8E8FF"/>
<path fill-rule="evenodd" clip-rule="evenodd" d="M26.0222 11.1561L27.3976 10.6088C27.3976 10.6088 27.3976 11.0779 26.7863 11.547C26.4042 11.8597 26.175 11.8597 26.175 11.9378L26.0222 12.016V11.1561ZM27.5504 13.5014L28.3145 8.88892L25.3345 9.90523V14.6741L27.5504 13.5014Z" fill="#D8E8FF"/>
<path fill-rule="evenodd" clip-rule="evenodd" d="M20.6724 25.7753C20.9781 25.8535 21.2837 25.9317 21.5129 25.9317V25.8535C21.5129 25.7753 21.5129 25.7753 21.5894 25.6972C21.6658 25.4626 21.6658 25.1499 21.6658 24.9154C21.5129 24.8372 21.3601 24.6809 21.2837 24.5245C21.2073 24.29 21.0545 24.2118 20.8252 24.2118C20.5196 24.2118 20.2139 24.3681 20.0611 24.4463C19.9083 25.0717 20.3668 25.6972 20.6724 25.7753Z" fill="#D8E8FF"/>
<path fill-rule="evenodd" clip-rule="evenodd" d="M27.2453 23.2735C26.7105 23.8989 25.6407 24.9934 25.5643 24.9934L25.4879 25.0716L22.0493 24.9934C22.0493 25.3061 21.9729 25.6188 21.9729 25.8534V25.9315L26.0227 26.7133C26.4812 26.4006 27.6274 25.5407 28.0859 25.2279C27.7802 24.7589 27.7038 24.1335 27.7802 23.7426C27.551 23.5862 27.3982 23.4299 27.2453 23.2735Z" fill="#D8E8FF"/>
<path fill-rule="evenodd" clip-rule="evenodd" d="M27.7027 19.0521C26.9386 19.8338 26.1745 20.1465 25.4868 20.2247C25.334 20.2247 25.2575 20.2247 25.1047 20.2247C24.9519 20.2247 24.8755 20.2247 24.7227 20.2247C24.5698 20.2247 24.4934 20.2247 24.3406 20.1465C24.2642 20.3029 24.2642 20.6938 24.417 21.0847C24.5698 21.3974 24.8755 21.6319 25.2575 21.7883L25.4104 21.8665V22.0228C25.4104 22.101 25.4104 23.1173 26.5565 23.3518C26.7094 23.1955 26.8622 22.9609 27.015 22.8828C26.7858 22.3355 26.9386 21.7883 27.2443 21.5537C27.2443 21.6319 27.0914 22.9609 28.1612 23.43L28.314 23.5082L28.2376 23.6645C28.2376 23.7427 27.8556 24.9936 29.1546 25.4626L29.3838 25.5408L29.3074 25.7753C29.3074 25.8535 28.7725 27.0262 29.9187 27.6516H32.4403V25.619C31.5233 25.5408 31.1413 24.759 31.0649 24.2118C30.6828 24.1336 30.3007 23.9772 30.0715 23.6645C29.5366 22.9609 29.9951 22.2573 29.9951 22.2573C29.9951 22.2573 29.9951 22.9609 30.3772 23.43C30.6064 23.6645 30.8356 23.8209 31.2177 23.8209H31.3705V23.9772C31.3705 24.0554 31.4469 24.9936 32.3639 25.0717V20.8501C32.3639 20.2247 32.5167 19.5211 32.7459 18.9739H27.7027V19.0521Z" fill="#D8E8FF"/>
<path fill-rule="evenodd" clip-rule="evenodd" d="M20.9021 21.0066L20.8257 23.6646L21.1313 23.7428L21.819 21.1629L21.437 20.3812L20.9021 21.0066Z" fill="#D8E8FF"/>
<path fill-rule="evenodd" clip-rule="evenodd" d="M22.5073 30.8568C22.4309 30.8568 22.3545 30.7787 22.3545 30.7005C22.3545 30.6223 22.4309 30.5441 22.5073 30.5441C22.5837 30.5441 22.6601 30.6223 22.6601 30.7005C22.6601 30.8568 22.5837 30.8568 22.5073 30.8568ZM28.9259 33.2804C29.4608 33.4367 29.5372 35.0784 30.3777 35.2348C30.4542 35.2348 30.5306 35.2348 30.607 35.2348C30.8362 35.2348 30.989 35.1566 31.1419 34.9221C31.1419 34.9221 30.7598 34.2967 30.4542 33.8276C30.0721 33.2804 29.7664 32.5768 29.0023 32.5768H28.9259C28.6967 32.5768 28.5439 32.7331 28.5439 32.7331C28.2382 32.5768 27.9326 32.4986 27.7033 32.4986C27.2448 32.4986 26.8628 32.7331 26.71 32.7331L24.9525 32.5768C24.7232 32.5768 24.494 32.264 24.4176 32.1859V32.1077C24.4176 32.0295 24.4176 32.0295 24.4176 31.9513C24.3412 30.5441 23.3478 29.9969 22.9658 29.9969C22.9658 29.9969 23.0422 29.7624 22.8894 29.606L22.5073 30.0751L21.2847 29.4496L22.1252 30.466L21.4375 31.3259C21.3611 31.4041 21.3611 31.5604 21.3611 31.6386L21.6668 31.9513L22.0488 31.7168H22.1252C22.2016 31.7168 22.4309 31.7168 22.5073 31.7168C22.6601 31.7168 22.8129 31.7168 22.8129 31.5604C22.7365 32.1077 22.2781 32.9676 22.5837 33.6712L22.8129 34.2185L21.3611 33.984L20.6734 35.1566C20.4442 35.5475 20.4442 35.9384 20.597 36.1729L20.8262 36.4856C20.8262 36.4856 21.2083 36.0948 21.2847 35.8602L21.3611 35.6257C21.2847 35.5475 21.2847 35.3912 21.3611 35.313L21.8196 34.6094L23.5007 35.0003L23.5771 34.8439C23.7299 34.6094 23.8827 34.6094 24.0355 34.6094C24.1119 34.6094 24.1884 34.6094 24.2648 34.6094C24.5704 34.6876 25.1053 34.7657 25.6402 34.7657C26.2515 34.7657 26.7864 34.6876 27.092 34.2967C27.7033 35.2348 29.0023 35.3912 28.8495 35.8602L28.5439 37.502C28.7731 37.502 29.0023 37.5019 29.1551 37.4238L29.4608 35.7039C29.4608 35.5475 29.5372 35.2348 29.5372 35.2348C29.3844 35.0784 29.1551 34.8439 28.9259 34.5312C28.6967 34.0621 28.8495 33.8276 28.6203 33.2804C28.6967 33.3585 28.7731 33.2804 28.9259 33.2804Z" fill="#D8E8FF"/>
<path fill-rule="evenodd" clip-rule="evenodd" d="M20.137 34.7658C20.137 34.7658 20.6719 34.5313 20.7483 34.3749L20.6719 34.2185C20.5955 34.0622 20.5955 33.984 20.7483 33.9058L21.3596 33.4368L22.353 33.6713C22.353 33.6713 22.2001 33.4368 22.2001 33.1241L21.2068 32.8895L20.2898 33.4368C19.9078 33.7495 19.8314 34.2185 19.9842 34.5313L20.137 34.7658Z" fill="#D8E8FF"/>
<path fill-rule="evenodd" clip-rule="evenodd" d="M27.397 37.5018C27.5498 37.5018 27.779 37.5018 28.0083 37.5018C28.0083 37.5018 28.5432 35.9383 28.5432 35.8601C28.2375 35.7037 27.6262 35.391 27.397 35.2347C27.5498 35.4692 27.9319 35.7819 27.8554 35.9383L27.397 37.5018Z" fill="#D8E8FF"/>
<path fill-rule="evenodd" clip-rule="evenodd" d="M32.4398 28.1208H17.8451V33.7496C17.8451 36.0167 19.4497 37.5021 21.8949 37.5021C23.8817 37.5021 24.4165 37.5803 25.1807 38.3621C25.7155 37.8148 26.0976 37.6585 27.0146 37.5803V37.5021L27.473 36.0167L26.7089 35.0786C26.4033 35.1568 26.174 35.235 25.7155 35.235C25.2571 35.235 24.7986 35.1568 24.2637 35.0786C24.1873 35.0786 24.1873 35.0786 24.1109 35.0786C24.0345 35.0786 24.0345 35.0786 24.0345 35.0786L23.9581 35.235L23.8052 35.5477L23.4232 35.4695L22.0478 35.1568L21.8185 35.4695L21.9713 35.6258L21.8949 35.9386C21.8185 36.2513 21.4365 36.6422 21.3601 36.7203L20.978 37.1112L20.6723 36.7203L20.4431 36.4076C20.2139 36.0949 20.1375 35.704 20.2903 35.235L19.9082 35.3913L19.7554 35.0004L19.6026 34.6877C19.3733 34.2186 19.4497 33.4369 20.061 33.046L21.2072 32.4206L22.277 32.6551C22.277 32.5769 22.3534 32.186 22.3534 32.1078H22.277L21.6657 32.3424L21.0544 31.9515C21.0544 31.9515 20.8252 31.717 21.0544 31.4824L21.6657 30.6225L20.1375 28.5899L22.3534 29.528L22.5062 29.3716L22.8119 28.9807L23.1939 29.2935C23.2704 29.3716 23.3468 29.528 23.3468 29.6062C23.9581 29.8407 25.1042 30.6225 25.1807 31.7951L24.7986 31.9515C24.875 32.0297 24.9514 32.1078 24.9514 32.1078L26.5561 32.2642C26.6325 32.2642 26.6325 32.2642 26.7089 32.186C26.9381 32.1078 27.2438 32.0297 27.5494 32.0297C27.8551 32.0297 28.0843 32.1078 28.39 32.2642C28.4664 32.2642 28.6192 32.186 28.772 32.186H28.8484C29.689 32.186 30.1474 32.8114 30.4531 33.3587C30.5295 33.4369 30.5295 33.515 30.6059 33.5932C30.9116 34.0623 31.2936 34.6877 31.2936 34.6877L31.4465 35.0004L31.2172 35.235C31.0644 35.4695 30.8352 35.704 30.3767 35.704C30.3003 35.704 30.2239 35.704 30.071 35.704C29.9946 35.704 29.9182 35.6258 29.8418 35.6258C29.8418 35.704 29.8418 35.7822 29.7654 35.9386L29.4597 37.4239C31.1408 37.033 32.2106 35.704 32.2106 33.8278L32.4398 28.1208Z" fill="#FFE52B"/>
<path fill-rule="evenodd" clip-rule="evenodd" d="M17.8453 27.6516H29.2307C28.6958 27.0262 28.6958 26.3226 28.8487 25.7753C28.6958 25.6972 28.543 25.619 28.3902 25.4626C27.9317 25.7753 26.5563 26.7917 26.2506 27.0262L26.1742 27.1044L21.7423 26.2444H21.6659C21.5895 26.2444 21.4367 26.2444 21.2074 26.2444C21.131 26.4789 20.9782 26.5571 20.8254 26.5571H20.749C20.5961 26.5571 20.5197 26.4789 20.4433 26.4008C20.3669 26.3226 20.3669 26.1662 20.3669 26.0881V26.0099C19.9084 25.6972 19.45 24.9154 19.6792 24.1336V24.0554L19.7556 23.9773C19.7556 23.9773 19.832 23.8991 19.9848 23.8209L19.5264 23.8991C19.3735 23.8991 19.2971 23.7427 19.3735 23.6645C19.3735 23.5082 19.5264 23.43 19.6028 23.5082L20.3669 23.6645L20.4433 20.8502L21.5895 19.5993L22.2772 21.1629L21.5131 23.8209L22.2008 23.8991C22.3536 23.8991 22.43 24.0554 22.3536 24.1336C22.3536 24.2118 22.2772 24.29 22.1244 24.29L21.5895 24.2118C21.5895 24.2118 21.5895 24.2118 21.5895 24.29C21.6659 24.4463 21.7423 24.5245 21.8187 24.5245L25.1809 24.6027C25.3337 24.4463 25.7158 24.1336 26.0214 23.7427C25.1809 23.43 24.8752 22.6482 24.7988 22.1792C24.3403 21.9446 24.0347 21.6319 23.8055 21.241C23.5762 20.772 23.6526 20.2247 23.729 19.9902C23.2706 19.8338 22.8121 19.5211 22.2772 19.0521H17.1576C17.3868 19.6775 17.5397 20.3029 17.5397 20.9283V27.6516H17.8453Z" fill="#FFE52B"/>
<path fill-rule="evenodd" clip-rule="evenodd" d="M22.5069 30.5441C22.4304 30.5441 22.3539 30.6224 22.3539 30.7007C22.3539 30.7789 22.4304 30.8572 22.5069 30.8572C22.5834 30.8572 22.6599 30.7789 22.6599 30.7007C22.6599 30.6224 22.5834 30.5441 22.5069 30.5441Z" fill="#262626"/>
<path fill-rule="evenodd" clip-rule="evenodd" d="M29.2308 42.3489L28.5431 40.4726C29.3072 40.2381 30.6826 39.6909 31.2939 39.3L30.9119 40.7072L32.2873 41.1762C31.5232 41.6453 30.4534 42.0362 29.2308 42.3489ZM25.1046 44.0688C23.4999 44.0688 21.666 43.6779 21.1311 43.5216L21.9717 41.2544C22.6594 41.489 24.0348 41.6453 25.1046 41.6453H25.181C26.1743 41.6453 27.6262 41.4108 28.3139 41.2544L29.1544 43.5216C28.5431 43.6779 26.7092 44.0688 25.1046 44.0688ZM17.9218 41.1762L19.2972 40.7072L18.8388 39.3782C19.4501 39.769 20.8255 40.2381 21.5896 40.5508L20.9019 42.4271C19.7557 42.0362 18.7623 41.6453 17.9218 41.1762ZM32.3637 40.7853L31.5232 40.4726L31.7524 39.6127L31.9816 38.6746C31.9816 38.6746 30.4534 39.5345 28.3903 40.1599C27.779 40.3163 27.3205 40.3945 27.3205 40.3945V41.0199C27.3205 41.0199 26.1743 41.2544 25.0281 41.2544H24.9517C23.8055 41.2544 22.6594 41.0199 22.6594 41.0199V40.3163C22.6594 40.3163 22.2009 40.2381 21.5896 40.0818C19.5265 39.4563 17.9982 38.5964 17.9982 38.5964L18.2275 39.5345L18.4567 40.3945L17.6162 40.7072L16.6992 41.0981C17.769 41.6453 19.2208 42.4271 20.5962 42.818L20.2906 43.6779C20.2906 43.6779 22.0481 44.4597 24.8753 44.4597H24.9517C27.8554 44.4597 29.5365 43.6779 29.5365 43.6779L29.2308 42.818C30.6062 42.4271 32.0581 41.6453 33.1278 41.0981L32.3637 40.7853Z" fill="#262626"/>
<path fill-rule="evenodd" clip-rule="evenodd" d="M21.5904 4.51082L21.9724 4.589L22.1253 4.19811L22.6602 3.1818L23.5771 3.65087L23.9592 3.80723L25.1818 2.55638L26.0987 3.57269L26.4044 3.8854L26.7864 3.72905L27.7034 3.25998L28.1618 4.35447L28.3147 4.74536L28.6967 4.66718L29.0788 4.589C28.926 4.97989 28.7731 5.37078 28.6967 5.68349C27.7034 5.13625 26.4808 4.82354 25.1818 4.82354C23.8828 4.82354 22.6602 5.13625 21.6668 5.68349C21.5904 5.37078 21.4376 4.97989 21.2847 4.589L21.5904 4.51082ZM25.1053 5.21442C26.7864 5.21442 28.1618 5.76167 28.926 6.38709C28.926 6.38709 29.1552 4.97989 29.9193 3.80723L28.5439 3.96358L27.8562 2.40003L26.4808 3.1818L25.1053 1.85278L23.7299 3.1818L22.3545 2.4782L21.6668 4.04176L20.2914 3.8854C21.0555 5.13625 21.2847 6.46527 21.2847 6.46527C22.0489 5.83985 23.4243 5.21442 25.1053 5.21442Z" fill="#262626"/>
<path fill-rule="evenodd" clip-rule="evenodd" d="M46.8054 28.5897C46.8054 28.5897 46.1941 29.6842 44.8187 29.6842C43.214 29.6842 42.5263 28.6679 42.5263 28.6679C42.5263 28.6679 42.6027 29.9969 42.0679 31.795C41.3802 33.984 42.0679 35.5475 42.0679 35.5475C42.0679 35.5475 41.6858 35.6257 41.2273 35.6257C41.0745 35.6257 40.8453 35.6257 40.6924 35.5475C39.317 35.2348 39.0114 33.9058 39.0114 33.9058C39.0114 33.9058 39.1642 38.2056 34.1974 38.2056H34.121C34.121 38.2056 34.5795 37.5801 34.6559 35.8602C34.8851 32.655 37.0247 32.1859 37.0247 32.1859C37.0247 32.1859 35.8785 32.0295 35.42 31.5605C34.6559 30.8569 34.7323 29.9969 34.7323 29.9969C36.4898 29.9969 37.5595 29.3715 38.4765 28.3552C39.3934 27.2607 39.5463 26.088 39.5463 26.088C39.5463 26.088 38.6293 27.0262 36.7954 27.0262C36.6426 27.0262 36.4898 27.0262 36.2605 27.0262C35.42 26.948 34.8087 26.4007 34.8087 26.4007C36.719 25.1499 38.018 23.0391 36.7954 19.7556C35.8785 17.1758 33.5861 15.2213 31.3702 13.736C30.606 13.2669 30.224 12.7196 30.224 12.2506C30.224 11.1561 31.7522 11.1561 32.3635 10.3743C33.0512 9.51436 32.5928 8.18534 31.9815 7.32538C31.9815 7.32538 32.2107 7.2472 32.5163 7.2472C33.1276 7.2472 34.2738 7.40356 35.1908 8.41987C36.4134 9.74889 35.8785 11.1561 35.8785 11.1561L36.1841 11.2343C36.4134 11.3124 36.5662 11.3124 36.7954 11.3124C36.8718 11.3124 36.8718 11.3124 36.9482 11.3124C38.7057 11.3124 39.5463 9.43618 39.5463 9.43618C39.5463 9.43618 41.4566 11.8597 38.6293 13.736C38.1708 14.0487 37.9416 14.3614 38.018 14.6741L38.0944 14.9086H38.3237C40.3104 15.4559 41.3802 16.8631 42.6027 18.5048C44.513 21.0065 47.1875 21.0847 47.4931 21.0847C47.4931 21.0847 46.8818 23.0391 45.0479 23.0391H44.9715C44.131 23.0391 43.7489 22.6482 43.7489 22.6482C43.7489 22.6482 43.5197 27.1825 46.8054 28.5897ZM45.2008 23.6645C47.4167 23.6645 48.1808 21.3192 48.1808 21.241L48.4101 20.4592H47.5695C47.2639 20.4592 44.8187 20.3811 43.1376 18.1139L42.9848 17.8794C41.8386 16.394 40.7689 14.9868 38.8586 14.3614C38.935 14.2832 39.0114 14.2832 39.0878 14.205C40.0811 13.5014 40.6924 12.7196 40.8453 11.7033C41.0745 10.218 40.1576 9.12347 40.0811 9.04529L39.4698 8.26351L39.0878 9.20165C39.0878 9.27982 38.4001 10.7652 37.0247 10.7652H36.9482C36.8718 10.7652 36.7954 10.7652 36.6426 10.7652C36.719 10.1398 36.5662 9.04529 35.6492 8.10716C34.5795 6.93449 33.2041 6.77814 32.5163 6.77814C32.1343 6.77814 31.905 6.85631 31.905 6.85631L31.0645 7.01267L31.6758 7.79445C32.1343 8.41987 32.5163 9.51436 32.0579 10.0616C31.905 10.218 31.5994 10.3743 31.2937 10.5307C30.6825 10.8434 29.8419 11.2343 29.8419 12.2506C29.8419 12.9542 30.3768 13.6578 31.2937 14.205C34.0446 16.0031 35.7257 17.8012 36.4898 19.912C37.636 23.0391 36.1077 24.8372 34.7323 25.7753L33.8918 26.2444L34.4266 26.7916C34.5031 26.8698 35.1908 27.4952 36.1841 27.5734C36.4134 27.5734 36.5662 27.5734 36.719 27.5734C37.4067 27.5734 37.9416 27.4952 38.4001 27.3389C38.2473 27.5734 38.0944 27.8079 37.9416 28.0425C37.1011 29.0588 36.1077 29.4497 34.6559 29.5278H34.121V30.0751C34.121 30.1533 34.0446 31.2478 35.0379 32.1077C35.1908 32.2641 35.3436 32.3422 35.5728 32.4204C34.8851 33.0458 34.2738 34.0621 34.121 35.8602C34.0446 37.3456 33.6625 37.8929 33.6625 37.8929L33.0512 38.831H34.121C35.8785 38.831 37.2539 38.3619 38.2473 37.3456C38.7821 36.7202 39.1642 36.0948 39.317 35.4693C39.6227 35.7039 40.0047 36.0166 40.5396 36.0948C40.7689 36.1729 40.9217 36.1729 41.2273 36.1729C41.7622 36.1729 42.1443 36.0948 42.2207 36.0166L42.9084 35.8602L42.6027 35.2348C42.6027 35.1566 41.9914 33.8276 42.6027 31.9514C42.832 31.1696 42.9848 30.3878 43.0612 29.8406C43.5197 30.0751 44.0546 30.2314 44.8187 30.2314C46.4998 30.2314 47.2639 28.9024 47.3403 28.9024L47.6459 28.277L47.0347 28.0425C44.9715 27.1825 44.5131 24.8372 44.4366 23.5863C44.5895 23.5863 44.8187 23.6645 45.0479 23.6645H45.2008Z" fill="#262626"/>
<path fill-rule="evenodd" clip-rule="evenodd" d="M42.6787 13.7359C43.0608 13.7359 43.5957 13.8922 44.0541 14.3613C45.506 15.8467 46.805 15.9249 46.805 15.9249C46.5757 16.4721 45.888 16.9412 45.1239 16.9412C44.9711 16.9412 44.8183 16.9412 44.589 16.863C43.5957 16.5503 43.29 14.9867 41.5325 14.0486C41.609 14.1268 42.0674 13.7359 42.6787 13.7359ZM41.3033 14.674C42.1438 15.1431 42.6023 15.7685 43.0608 16.2376C43.4429 16.7848 43.9013 17.2539 44.5126 17.4884C44.7419 17.5666 44.9711 17.5666 45.2003 17.5666C46.1173 17.5666 47.0342 17.0194 47.4163 16.1594L47.7983 15.3776L46.9578 15.2994C46.8814 15.2994 45.8116 15.2213 44.589 13.8923C44.0541 13.345 43.4429 13.1105 42.8316 13.1105C41.991 13.1105 41.4561 13.5014 41.3797 13.5795L40.6156 14.1268L41.3033 14.674Z" fill="#262626"/>
<path fill-rule="evenodd" clip-rule="evenodd" d="M41.6856 22.6482C41.1507 18.583 38.247 15.6122 35.0377 13.8141C34.7321 13.6578 34.4264 13.5014 34.1972 13.3451C35.1905 13.5014 36.7952 13.5014 38.0178 12.4069C38.0178 12.4069 36.1075 13.8141 32.2869 12.5633C33.3566 13.2669 35.4198 14.2832 37.3301 15.9249C42.0676 20.1465 38.7055 24.2899 38.7055 24.2899C40.3866 22.4918 40.463 20.5374 40.0045 18.9738C40.9214 20.4592 41.4563 22.3355 41.3799 24.6026C41.2271 27.8861 39.4696 30.7005 37.6357 32.9677C36.7188 34.0621 36.5659 35.3912 36.5659 35.3912C36.5659 35.3912 36.948 34.2185 37.9414 32.9677C39.9281 30.6223 41.6091 28.1206 41.8384 24.6026C42.0676 25.2281 42.9082 27.0262 44.2072 27.7298C44.1308 27.7298 42.4497 26.7134 41.6856 22.6482Z" fill="#262626"/>
<path fill-rule="evenodd" clip-rule="evenodd" d="M16.0132 38.2056C11.1228 38.2056 11.1992 33.9058 11.1992 33.9058C11.1992 33.9058 10.8936 35.1566 9.51816 35.5475C9.36534 35.6257 9.21252 35.6257 8.98328 35.6257C8.52481 35.6257 8.14275 35.5475 8.14275 35.5475C8.14275 35.5475 8.83045 33.984 8.14275 31.795C7.53145 29.9969 7.68427 28.6679 7.68427 28.6679C7.68427 28.6679 6.99656 29.6842 5.39191 29.6842C4.01649 29.6842 3.40519 28.5897 3.40519 28.5897C6.69091 27.1825 6.38527 22.7264 6.38527 22.7264C6.38527 22.7264 5.92679 23.0391 5.08626 23.0391H5.00985C3.17596 23.0391 2.56466 21.0847 2.56466 21.0847C2.87031 21.0847 5.54473 21.0065 7.45504 18.5048C8.67763 16.8631 9.7474 15.4559 11.7341 14.9086H11.9634L12.0398 14.6741C12.1162 14.3614 11.8869 14.0487 11.4285 13.736C8.60122 11.8597 10.5115 9.43619 10.5115 9.43619C10.5115 9.43619 11.2756 11.3125 13.1095 11.3125C13.1859 11.3125 13.1859 11.3125 13.2624 11.3125C13.4916 11.3125 13.6444 11.3125 13.8737 11.2343L14.1793 11.1561C14.1793 11.1561 13.6444 9.7489 14.867 8.41988C15.784 7.40357 16.9301 7.24721 17.5414 7.24721C17.8471 7.24721 18.0763 7.32539 18.0763 7.32539C17.465 8.18534 17.0066 9.51436 17.6943 10.3743C18.3056 11.0779 19.8338 11.1561 19.8338 12.2506C19.8338 12.7197 19.4517 13.2669 18.6876 13.736C16.3953 15.2213 14.1793 17.0976 13.2624 19.7556C12.1162 22.9609 13.4152 25.1499 15.3255 26.4007C15.3255 26.4007 14.7142 26.948 13.8737 27.0262C13.7208 27.0262 13.568 27.0262 13.3388 27.0262C11.5049 27.0262 10.5879 26.1662 10.5879 26.1662C10.5879 26.1662 10.7408 27.3389 11.6577 28.4334C12.4982 29.4497 13.6444 30.0751 15.4019 30.0751C15.4019 30.0751 15.4783 30.9351 14.7142 31.6386C14.2557 32.1077 13.1095 32.2641 13.1095 32.2641C13.1095 32.2641 15.2491 32.7331 15.4783 35.9384C15.6311 37.5802 16.0896 38.2056 16.0132 38.2056ZM16.5481 37.8929C16.5481 37.8929 16.166 37.3456 16.0896 35.8602C15.9368 34.0622 15.3255 33.0458 14.6378 32.4204C14.7906 32.3422 15.0198 32.1859 15.1727 32.1077C16.0896 31.2478 16.0896 30.2315 16.0896 30.0751V29.5279H15.5547C14.1029 29.5279 13.1095 29.0588 12.269 28.0425C12.0398 27.8079 11.8869 27.5734 11.8105 27.3389C12.269 27.4952 12.8039 27.5734 13.4916 27.5734C13.6444 27.5734 13.8737 27.5734 14.0265 27.5734C15.0198 27.4952 15.7075 26.8698 15.784 26.7916L16.3188 26.2444L15.7075 25.8535C14.2557 24.9154 12.7275 23.1173 13.8737 19.9902C14.6378 17.9576 16.3188 16.0813 19.0697 14.2832C19.9866 13.6578 20.5215 12.9542 20.5215 12.3288C20.5215 11.3125 19.681 10.8434 19.0697 10.6089C18.764 10.4525 18.4584 10.2961 18.3056 10.1398C17.8471 9.59254 18.2291 8.49805 18.6876 7.87263L19.2989 7.09086L18.382 6.9345C18.382 6.9345 18.0763 6.85632 17.7707 6.85632C17.083 6.85632 15.7075 7.01268 14.6378 8.18534C13.568 9.0453 13.4916 10.0616 13.4916 10.7652C13.4152 10.7652 13.3388 10.7652 13.1859 10.7652H13.1095C11.7341 10.7652 11.1228 9.27983 11.0464 9.20165L10.7408 8.26352L10.1295 9.0453C10.1295 9.12348 9.21252 10.218 9.44175 11.7033C9.59458 12.6415 10.2059 13.5014 11.1992 14.205C11.2756 14.2832 11.3521 14.3614 11.4285 14.3614C9.51816 14.9868 8.44839 16.394 7.30221 17.8794L7.14939 18.1139C5.39191 20.3811 2.94672 20.4592 2.64107 20.4592H1.80054L2.02977 21.241C2.02977 21.3192 2.79389 23.6645 5.00985 23.6645H5.08626C5.3155 23.6645 5.54473 23.5863 5.69756 23.5863C5.62114 24.8372 5.16267 27.1825 3.09954 28.0425L2.48825 28.277L2.7939 28.9024C2.7939 28.9806 3.55802 30.2314 5.3155 30.2314C6.07962 30.2314 6.6145 30.0751 7.07298 29.8406C7.14939 30.3878 7.30221 31.1696 7.53145 31.9514C8.14275 33.8276 7.60786 35.1566 7.53145 35.2348L7.37862 35.8602L8.06633 36.0166C8.14275 36.0166 8.52481 36.173 9.05969 36.173C9.28893 36.173 9.51816 36.173 9.67099 36.0948C10.2059 35.9384 10.5879 35.7039 10.8936 35.4694C11.0464 36.0948 11.4285 36.7202 11.9634 37.3456C12.8803 38.3619 14.2557 38.831 16.0896 38.831H17.1594L16.5481 37.8929Z" fill="#262626"/>
<path fill-rule="evenodd" clip-rule="evenodd" d="M6.15485 14.3615C6.61332 13.8924 7.0718 13.7361 7.53027 13.7361C8.14157 13.7361 8.67645 14.0488 8.67645 14.0488C6.91897 14.9869 6.61332 16.4723 5.61997 16.8632C5.46714 16.9414 5.31432 16.9414 5.08508 16.9414C4.39737 16.9414 3.63325 16.4723 3.40401 15.9251C3.40401 15.9251 4.70302 15.8469 6.15485 14.3615ZM5.08508 17.5668C5.31432 17.5668 5.54355 17.5668 5.77279 17.4886C6.38409 17.2541 6.76615 16.785 7.22462 16.2378C7.68309 15.6905 8.14157 15.0651 8.9821 14.6742L9.82263 14.2052L9.05851 13.6579C8.9821 13.5797 8.3708 13.1888 7.60668 13.1888C6.91897 13.1888 6.30768 13.5016 5.8492 13.9706C4.62661 15.2215 3.55684 15.3778 3.48043 15.3778L2.63989 15.456L3.02195 16.2378C3.25119 17.0196 4.16814 17.5668 5.08508 17.5668Z" fill="#262626"/>
<path fill-rule="evenodd" clip-rule="evenodd" d="M8.9055 24.6026C8.82909 22.3355 9.36397 20.4592 10.2809 18.9738C9.74603 20.5374 9.82245 22.4918 11.5799 24.2899C11.5799 24.2899 8.21779 20.1465 12.9553 15.9249C14.8656 14.2832 16.9288 13.3451 17.9985 12.5633C14.1779 13.8141 12.2676 12.4069 12.2676 12.4069C13.4902 13.5014 15.0949 13.5014 16.0882 13.3451C15.859 13.5014 15.5534 13.5796 15.2477 13.8141C12.0384 15.6122 9.05833 18.583 8.59985 22.7264C7.83573 26.7916 6.15466 27.8079 6.15466 27.8079C7.45367 27.1043 8.2942 25.3062 8.52344 24.6808C8.75268 28.1988 10.4337 30.7005 12.4205 33.0458C13.4138 34.2967 13.7959 35.4693 13.7959 35.4693C13.7959 35.4693 13.5666 34.1403 12.7261 33.0458C10.8158 30.7005 9.05833 27.8861 8.9055 24.6026Z" fill="#262626"/>
<path fill-rule="evenodd" clip-rule="evenodd" d="M24.0354 16.3158V17.0976C24.341 16.7849 24.8759 16.863 24.8759 16.863V18.0357C24.8759 18.0357 24.8759 18.5829 24.6467 18.8957H25.7165C25.4872 18.6611 25.4872 18.0357 25.4872 18.0357V16.863C25.4872 16.863 26.0221 16.7849 26.3278 17.0976V16.3158H24.0354Z" fill="#262626"/>
<path fill-rule="evenodd" clip-rule="evenodd" d="M23.4995 11.4686C23.8815 11.7814 24.1108 11.7814 24.1108 11.8595L24.2636 11.9377V11.1559L22.8882 10.6087C22.8882 10.5305 22.8882 10.9996 23.4995 11.4686Z" fill="#262626"/>
<path fill-rule="evenodd" clip-rule="evenodd" d="M26.7088 11.4689C27.3201 10.9998 27.3201 10.5308 27.3201 10.5308L25.9447 11.078V11.8598L26.0975 11.7816C26.1739 11.7816 26.3268 11.7816 26.7088 11.4689Z" fill="#262626"/>
<path fill-rule="evenodd" clip-rule="evenodd" d="M25.1038 9.43623L21.8945 8.10721C22.2001 7.40361 23.4227 6.85637 25.1038 6.85637C26.7849 6.85637 28.0839 7.40361 28.3895 8.10721L25.1038 9.43623ZM27.549 13.5015L25.333 14.6741V9.9053L28.3131 8.88899L27.549 13.5015ZM28.9244 14.8305L29.9178 15.4559L30.147 15.6123C29.6121 15.7686 29.1536 16.0813 28.7716 16.4722C28.7716 16.4722 28.7716 16.4722 28.6952 16.5504C28.6188 16.6286 28.5423 16.7068 28.4659 16.8631C28.4659 16.8631 28.4659 16.8631 28.3895 16.9413C28.3131 17.0195 28.2367 17.1758 28.1603 17.254C28.1603 17.254 28.1603 17.254 28.1603 17.3322C28.0839 17.4885 28.0075 17.5667 27.931 17.7231C27.2433 18.9739 26.0972 19.7557 25.1038 19.7557C24.1104 19.7557 22.9643 18.9739 22.2765 17.7231C22.2001 17.5667 22.1237 17.4885 22.0473 17.3322C22.0473 17.3322 22.0473 17.254 21.9709 17.254C21.8945 17.1758 21.8181 17.0195 21.7417 16.9413C21.7417 16.9413 21.7417 16.8631 21.6652 16.8631C21.5888 16.7849 21.5124 16.7068 21.436 16.5504C21.436 16.5504 21.436 16.5504 21.3596 16.4722C20.9775 16.0813 20.5955 15.7686 19.9842 15.6123L20.2134 15.4559L21.2068 14.8305L22.2001 14.2051L24.951 15.7686L27.7018 14.2051L28.9244 14.8305ZM32.8214 19.0521C32.5922 19.6775 32.4394 20.3029 32.4394 20.9284V25.15C31.5988 24.9936 31.446 24.0555 31.446 24.0555V23.8991H31.2932C30.9111 23.8991 30.6819 23.6646 30.4526 23.5082C30.0706 23.0392 29.9942 22.4137 30.0706 22.3356C30.0706 22.3356 29.6121 23.0392 30.147 23.7428C30.3762 24.0555 30.6819 24.2118 31.1404 24.29C31.2168 24.8372 31.5988 25.5408 32.5158 25.6972V27.7298H29.9942C28.848 27.0262 29.3065 25.9317 29.3829 25.8535L29.4593 25.619L29.1536 25.4627C27.8546 24.9936 28.2367 23.6646 28.2367 23.6646L28.3131 23.5082L28.1603 23.43C27.0905 22.961 27.2433 21.632 27.2433 21.5538C26.9377 21.7883 26.7849 22.3356 27.0141 22.8828C26.8613 23.0392 26.7084 23.1955 26.5556 23.3519C25.4859 23.0392 25.4094 22.0228 25.4094 22.0228V21.8665L25.2566 21.7883C24.7981 21.632 24.5689 21.3974 24.4161 21.0847C24.2633 20.6938 24.3397 20.3811 24.3397 20.1466C24.4925 20.1466 24.5689 20.2248 24.7217 20.2248C24.8746 20.2248 24.951 20.2248 25.1038 20.2248C25.2566 20.2248 25.333 20.2248 25.4859 20.2248C26.1736 20.1466 26.9377 19.8339 27.7018 19.0521H32.8214ZM29.6885 37.3457L29.9942 35.8603C29.9942 35.7821 29.9942 35.7039 30.0706 35.5476C30.147 35.5476 30.2234 35.6258 30.2998 35.6258C30.3762 35.6258 30.5291 35.6258 30.6055 35.6258C31.0639 35.6258 31.2932 35.3912 31.446 35.1567L31.6752 34.9222L31.5224 34.6095C31.5224 34.6095 31.1404 33.984 30.8347 33.515C30.7583 33.4368 30.6819 33.3586 30.6819 33.2804C30.3762 32.7332 29.9178 32.1078 29.0772 32.1078H29.0008C28.848 32.1078 28.7716 32.1078 28.6188 32.1859C28.3131 32.0296 28.0839 31.9514 27.7782 31.9514C27.3962 31.9514 27.0905 32.0296 26.9377 32.1078C26.8613 32.1078 26.8613 32.1078 26.7849 32.1859L25.1802 32.0296C25.1802 32.0296 25.1038 31.9514 25.0274 31.8732L25.4094 31.7169C25.333 30.5442 24.1869 29.7624 23.5756 29.5279C23.5756 29.3715 23.4991 29.2934 23.4227 29.2152L23.0407 28.9025L22.5822 29.3715L22.4294 29.5279L20.137 28.5898L21.5888 30.466L20.9775 31.326C20.7483 31.5605 20.9775 31.7951 20.9775 31.7951L21.5888 32.1859L22.2001 31.9514H22.2765C22.2765 32.0296 22.2001 32.4205 22.2001 32.4987L21.1304 32.2641L19.9842 32.8895C19.3729 33.3586 19.2965 34.0622 19.5257 34.5313L19.6785 34.844L19.8314 35.2349L20.2134 35.0785C20.0606 35.5476 20.137 36.0166 20.3662 36.2512L20.5955 36.5639L20.9011 36.9548L21.2832 36.5639C21.3596 36.4857 21.7417 36.0948 21.8181 35.7821L21.8945 35.5476L21.7417 35.3912L21.9709 35.0785L23.3463 35.3912L23.652 35.4694L23.8048 35.1567L23.8812 35.0003C23.8812 35.0003 23.8812 35.0003 23.9576 35.0003C24.034 35.0003 24.034 35.0003 24.1104 35.0003C24.6453 35.0785 25.1038 35.1567 25.5623 35.1567C25.9443 35.1567 26.25 35.1567 26.5556 35.0003C26.5556 35.0003 27.3197 35.8603 27.3197 35.9385L26.8613 37.4238V37.502C26.0207 37.5802 25.5623 37.7366 25.0274 38.2838C24.2633 37.502 23.7284 37.4238 21.7417 37.4238C19.3729 37.4238 17.6918 36.0166 17.6918 33.6713V28.0425H32.2865V33.6713C32.4394 35.6258 31.3696 36.9548 29.6885 37.3457ZM20.6719 34.1404L20.7483 34.2967C20.6719 34.4531 20.137 34.6876 20.137 34.6876L19.9842 34.3749C19.8314 34.0622 19.9078 33.5931 20.2898 33.2804L21.2068 32.7332L22.2001 32.9677C22.2001 33.2804 22.353 33.515 22.353 33.515L21.3596 33.2804L20.7483 33.7495C20.5955 33.9059 20.5955 34.0622 20.6719 34.1404ZM29.5357 35.7821L29.2301 37.502C29.0008 37.502 28.848 37.5802 28.6188 37.5802L28.9244 35.9385C29.0008 35.4694 27.7782 35.3131 27.1669 34.3749C26.8613 34.6876 26.3264 34.844 25.7151 34.844C25.1802 34.844 24.6453 34.7658 24.3397 34.6876C24.2633 34.6876 24.1868 34.6876 24.1104 34.6876C23.9576 34.6876 23.7284 34.7658 23.652 34.9222L23.5756 35.0785L21.8945 34.6876L21.436 35.3912C21.3596 35.5476 21.3596 35.6258 21.436 35.7039L21.5888 35.8603C21.5124 36.0948 21.1304 36.4857 21.1304 36.4857L20.9011 36.173C20.6719 35.9385 20.7483 35.5476 20.9775 35.1567L21.6652 33.984L23.1171 34.2186L22.8878 33.6713C22.5822 32.9677 23.0407 32.1078 23.1171 31.5605C23.1171 31.7169 22.9643 31.7169 22.8114 31.7169C22.6586 31.7169 22.5058 31.7169 22.4294 31.7169C22.353 31.7169 22.353 31.7169 22.353 31.7169L21.9709 31.9514L21.6652 31.6387C21.6652 31.5605 21.5888 31.4823 21.7417 31.326L22.4294 30.466L21.5888 29.4497L22.8114 30.0751L23.1935 29.6061C23.2699 29.6843 23.2699 29.997 23.2699 29.997C23.652 29.997 24.6453 30.6224 24.7217 31.9514C24.7217 32.0296 24.7217 32.0296 24.7217 32.1078C24.7217 32.1078 24.7217 32.1078 24.7217 32.1859C24.7981 32.2641 25.0274 32.5768 25.2566 32.5768L26.9377 32.7332C27.0905 32.7332 27.4726 32.4987 27.931 32.4987C28.1603 32.4987 28.4659 32.5768 28.7716 32.7332C28.7716 32.7332 28.9244 32.5768 29.1536 32.5768H29.2301C29.9942 32.5768 30.2998 33.2804 30.6819 33.8277C30.9875 34.2967 31.3696 34.9222 31.3696 34.9222C31.2168 35.0785 31.0639 35.2349 30.8347 35.2349C30.7583 35.2349 30.6819 35.2349 30.6055 35.2349C29.8413 35.0785 29.6885 33.4368 29.2301 33.2804H29.1536C29.0008 33.2804 28.9244 33.4368 28.9244 33.4368C29.1536 33.984 29.0008 34.2186 29.2301 34.6876C29.3829 35.0003 29.6885 35.3131 29.8413 35.3912C29.6121 35.3131 29.5357 35.5476 29.5357 35.7821ZM28.0075 37.502C27.7782 37.502 27.549 37.502 27.3962 37.502L27.8546 35.9385C27.931 35.7039 27.549 35.4694 27.3962 35.2349C27.6254 35.3912 28.2367 35.7039 28.5423 35.8603C28.5423 35.9385 28.0075 37.502 28.0075 37.502ZM20.8247 23.6646L20.9011 21.0065L21.5124 20.3811L21.8945 21.1629L21.1304 23.6646H20.8247ZM21.2832 24.4464C21.3596 24.6809 21.5888 24.7591 21.6652 24.8372C21.6652 24.9936 21.6652 25.3063 21.5888 25.619C21.5888 25.6972 21.5888 25.6972 21.5124 25.7754V25.8535C21.3596 25.8535 20.9775 25.8535 20.6719 25.6972C20.3662 25.5408 19.9078 24.9936 19.9842 24.29C20.137 24.2118 20.4427 24.0555 20.7483 24.0555C20.9775 24.1336 21.1304 24.2118 21.2832 24.4464ZM28.0075 25.2281C27.549 25.5408 26.4028 26.4008 25.9443 26.7135L21.8945 25.9317V25.8535C21.9709 25.619 21.9709 25.3063 21.9709 24.9936L25.4094 25.0718L25.4859 24.9936C25.5623 24.9154 26.632 23.8991 27.1669 23.2737C27.3197 23.43 27.4726 23.5864 27.7018 23.7428C27.7018 24.1336 27.7018 24.6809 28.0075 25.2281ZM22.5058 19.0521C22.9643 19.5212 23.4991 19.8339 23.9576 19.9902C23.8812 20.2248 23.8048 20.6938 24.034 21.2411C24.1868 21.632 24.5689 21.9447 25.0274 22.1792C25.1038 22.6483 25.4094 23.43 26.25 23.7428C25.8679 24.1336 25.5623 24.4464 25.4094 24.6027L21.8945 24.5245C21.8181 24.4464 21.6652 24.3682 21.6652 24.29C21.6652 24.29 21.6652 24.29 21.6652 24.2118L22.2001 24.29C22.2765 24.29 22.4294 24.2118 22.4294 24.1336C22.4294 23.9773 22.353 23.8991 22.2765 23.8991L21.5888 23.8209L22.353 21.1629L21.6652 19.5993L20.4427 20.772L20.3662 23.5864L19.6021 23.43C19.4493 23.43 19.3729 23.5082 19.3729 23.5864C19.3729 23.7428 19.4493 23.8209 19.5257 23.8209L19.8314 23.8991C19.6785 23.9773 19.6021 24.0555 19.6021 24.0555V24.1336V24.2118C19.4493 24.9936 19.8314 25.6972 20.2898 26.0881V26.1663C20.2898 26.3226 20.2898 26.4008 20.3662 26.479C20.4427 26.5571 20.5191 26.6353 20.6719 26.6353H20.7483C20.9775 26.6353 21.1304 26.479 21.2068 26.3226C21.3596 26.3226 21.5124 26.3226 21.6652 26.3226H21.7417L26.1736 27.1826L26.25 27.1044C26.632 26.8699 27.931 25.8535 28.3895 25.5408C28.5423 25.619 28.6188 25.7754 28.848 25.8535C28.6952 26.3226 28.6952 27.1044 29.2301 27.7298H17.8446V21.0065C17.8446 20.3811 17.6918 19.6775 17.4626 19.1303H22.5058V19.0521ZM21.8945 8.88899L24.8746 9.9053V14.6741L22.6586 13.5015L21.8945 8.88899ZM29.1536 8.34175C29.1536 7.16908 27.2433 6.15277 25.1038 6.15277C22.9643 6.15277 21.054 7.16908 21.054 8.34175L21.1304 8.65446L21.9709 13.5797L21.1304 14.1269L18.9144 15.4559C18.9144 15.4559 18.4559 15.6904 18.2267 15.8468C17.3862 16.4722 17.2333 17.3322 17.6918 17.6449C17.8446 16.9413 18.3795 16.2377 19.3729 16.2377C20.137 16.2377 20.6719 16.6286 21.1304 17.1758C21.2832 17.3322 21.3596 17.4885 21.436 17.6449C21.5888 17.8794 21.6652 18.0358 21.8181 18.1921H16.1636C16.5456 19.0521 17.0041 19.9902 17.0041 20.9284V33.7495C17.0041 36.8766 19.2965 38.362 21.8181 38.362C23.7284 38.362 24.034 38.2838 25.1038 39.3783C26.1736 38.2838 26.4028 38.362 28.3895 38.362C30.9111 38.362 33.2035 36.8766 33.2035 33.7495V20.9284C33.2035 19.912 33.5855 19.0521 34.044 18.1921H28.3895C28.5423 18.0358 28.6188 17.8012 28.7716 17.6449C28.848 17.4885 29.0008 17.3322 29.0772 17.1758C29.5357 16.6286 30.0706 16.2377 30.8347 16.2377C31.8281 16.2377 32.363 16.9413 32.5158 17.6449C32.9742 17.254 32.8214 16.394 31.9809 15.8468C31.7517 15.6904 31.2932 15.4559 31.2932 15.4559L29.0772 14.1269L28.2367 13.6578L29.0772 8.73264L29.1536 8.34175Z" fill="#262626"/>
<path d="M65.4508 29.6841H69.2714V20.4591H74.6202V17.0975H60.1019V20.4591H65.4508V29.6841Z" fill="#262626"/>
<path d="M86.4644 17.0975L79.9694 24.4462V17.0975H76.2252V29.6841H79.5109L86.006 22.3354V29.6841H89.7502V17.0975H86.4644Z" fill="#262626"/>
<path d="M96.3205 24.9934H102.357V29.6841H106.101V17.0975H102.357V21.71H96.3205V17.0975H92.5763V29.6841H96.3205V24.9934Z" fill="#262626"/>
<path d="M116.569 29.6841C117.41 29.6841 118.174 29.6059 118.938 29.3714C120.849 28.8241 122.148 27.1824 122.148 24.9934C122.148 22.8826 121.078 21.4754 119.32 20.7718C118.48 20.4591 117.486 20.4591 116.569 20.4591H112.672V17.0975H109.005V29.6841H116.569ZM112.749 23.4299H115.958C116.493 23.4299 116.952 23.4299 117.41 23.5862C118.021 23.8208 118.403 24.2898 118.403 24.9934C118.403 25.6188 118.021 26.2443 117.41 26.4788C117.028 26.6352 116.569 26.6352 115.958 26.6352H112.749V23.4299Z" fill="#262626"/>
<path d="M127.88 24.9152H128.949L133.458 29.6841H138.424L132.159 23.1172L138.195 17.0975H133.458L128.949 21.8663H127.88V17.0975H124.135V29.6841H127.88V24.9152Z" fill="#262626"/>
<path d="M146.141 16.7067C141.098 16.7067 138.042 19.5993 138.042 23.3518C138.042 27.1044 141.098 29.9969 146.141 29.9969C151.184 29.9969 154.164 27.1044 154.164 23.3518C154.164 19.5993 151.108 16.7067 146.141 16.7067ZM146.141 27.0262C143.62 27.0262 142.015 25.4626 142.015 23.43C142.015 21.3974 143.62 19.8338 146.141 19.8338C148.663 19.8338 150.267 21.3192 150.267 23.43C150.191 25.4626 148.586 27.0262 146.141 27.0262Z" fill="#262626"/>
<path d="M166.697 17.6448V16.394H162.953V17.6448C158.215 17.723 155.388 19.7556 155.388 23.43C155.388 27.0261 158.215 28.9024 162.953 29.0588V30.3096H166.697V29.0588C171.435 28.9806 174.262 27.1043 174.262 23.43C174.262 19.7556 171.435 17.723 166.697 17.6448ZM162.953 26.2444C160.355 26.1662 159.209 25.0717 159.209 23.3518C159.209 21.6319 160.355 20.4592 162.953 20.3029V26.2444ZM166.697 26.2444V20.3029C169.295 20.381 170.441 21.6319 170.441 23.3518C170.441 25.0717 169.295 26.1662 166.697 26.2444Z" fill="#262626"/>
<path d="M186.718 17.6448V16.394H182.973V17.6448C178.236 17.723 175.409 19.7556 175.409 23.43C175.409 27.0261 178.236 28.9024 182.973 29.0588V30.3096H186.718V29.0588C191.455 28.9806 194.282 27.1043 194.282 23.43C194.282 19.7556 191.455 17.723 186.718 17.6448ZM182.973 26.2444C180.375 26.1662 179.229 25.0717 179.229 23.3518C179.229 21.6319 180.375 20.4592 182.973 20.3029V26.2444ZM186.718 26.2444V20.3029C189.316 20.381 190.462 21.6319 190.462 23.3518C190.462 25.0717 189.392 26.1662 186.718 26.2444Z" fill="#262626"/>
</svg>
