<svg width="25" height="25" viewBox="0 0 25 25" fill="none" xmlns="http://www.w3.org/2000/svg">
<path d="M12.5831 22.7725C13.6831 22.7725 14.5831 21.8725 14.5831 20.7725H10.5831C10.5831 21.3029 10.7938 21.8116 11.1688 22.1867C11.5439 22.5617 12.0526 22.7725 12.5831 22.7725ZM18.5831 16.7725V11.7725C18.5831 8.70246 16.9431 6.13246 14.0831 5.45246V4.77246C14.0831 3.94246 13.4131 3.27246 12.5831 3.27246C11.7531 3.27246 11.0831 3.94246 11.0831 4.77246V5.45246C8.21306 6.13246 6.58306 8.69246 6.58306 11.7725V16.7725L5.29306 18.0625C4.66306 18.6925 5.10306 19.7725 5.99306 19.7725H19.1631C20.0531 19.7725 20.5031 18.6925 19.8731 18.0625L18.5831 16.7725Z" fill="#262626"/>
</svg>
