<svg width="25" height="24" viewBox="0 0 25 24" fill="none" xmlns="http://www.w3.org/2000/svg">
<path d="M9.44141 5.00001C9.17619 5.00001 8.92184 5.10537 8.7343 5.2929C8.54676 5.48044 8.44141 5.73479 8.44141 6.00001C8.44141 6.26523 8.54676 6.51958 8.7343 6.70712C8.92184 6.89465 9.17619 7.00001 9.44141 7.00001C9.70662 7.00001 9.96098 6.89465 10.1485 6.70712C10.336 6.51958 10.4414 6.26523 10.4414 6.00001C10.4414 5.73479 10.336 5.48044 10.1485 5.2929C9.96098 5.10537 9.70662 5.00001 9.44141 5.00001ZM6.61141 5.00001C6.81801 4.41448 7.20115 3.90744 7.70801 3.5488C8.21487 3.19015 8.82049 2.99756 9.44141 2.99756C10.0623 2.99756 10.6679 3.19015 11.1748 3.5488C11.6817 3.90744 12.0648 4.41448 12.2714 5.00001H19.4414C19.7066 5.00001 19.961 5.10537 20.1485 5.2929C20.3361 5.48044 20.4414 5.73479 20.4414 6.00001C20.4414 6.26523 20.3361 6.51958 20.1485 6.70712C19.961 6.89465 19.7066 7.00001 19.4414 7.00001H12.2714C12.0648 7.58554 11.6817 8.09258 11.1748 8.45122C10.6679 8.80986 10.0623 9.00246 9.44141 9.00246C8.82049 9.00246 8.21487 8.80986 7.70801 8.45122C7.20115 8.09258 6.81801 7.58554 6.61141 7.00001H5.44141C5.17619 7.00001 4.92184 6.89465 4.7343 6.70712C4.54676 6.51958 4.44141 6.26523 4.44141 6.00001C4.44141 5.73479 4.54676 5.48044 4.7343 5.2929C4.92184 5.10537 5.17619 5.00001 5.44141 5.00001H6.61141ZM15.4414 11C15.1762 11 14.9218 11.1054 14.7343 11.2929C14.5468 11.4804 14.4414 11.7348 14.4414 12C14.4414 12.2652 14.5468 12.5196 14.7343 12.7071C14.9218 12.8947 15.1762 13 15.4414 13C15.7066 13 15.961 12.8947 16.1485 12.7071C16.336 12.5196 16.4414 12.2652 16.4414 12C16.4414 11.7348 16.336 11.4804 16.1485 11.2929C15.961 11.1054 15.7066 11 15.4414 11ZM12.6114 11C12.818 10.4145 13.2011 9.90744 13.708 9.5488C14.2149 9.19015 14.8205 8.99756 15.4414 8.99756C16.0623 8.99756 16.6679 9.19015 17.1748 9.5488C17.6817 9.90744 18.0648 10.4145 18.2714 11H19.4414C19.7066 11 19.961 11.1054 20.1485 11.2929C20.3361 11.4804 20.4414 11.7348 20.4414 12C20.4414 12.2652 20.3361 12.5196 20.1485 12.7071C19.961 12.8947 19.7066 13 19.4414 13H18.2714C18.0648 13.5855 17.6817 14.0926 17.1748 14.4512C16.6679 14.8099 16.0623 15.0025 15.4414 15.0025C14.8205 15.0025 14.2149 14.8099 13.708 14.4512C13.2011 14.0926 12.818 13.5855 12.6114 13H5.44141C5.17619 13 4.92184 12.8947 4.7343 12.7071C4.54676 12.5196 4.44141 12.2652 4.44141 12C4.44141 11.7348 4.54676 11.4804 4.7343 11.2929C4.92184 11.1054 5.17619 11 5.44141 11H12.6114ZM9.44141 17C9.17619 17 8.92184 17.1054 8.7343 17.2929C8.54676 17.4804 8.44141 17.7348 8.44141 18C8.44141 18.2652 8.54676 18.5196 8.7343 18.7071C8.92184 18.8947 9.17619 19 9.44141 19C9.70662 19 9.96098 18.8947 10.1485 18.7071C10.336 18.5196 10.4414 18.2652 10.4414 18C10.4414 17.7348 10.336 17.4804 10.1485 17.2929C9.96098 17.1054 9.70662 17 9.44141 17ZM6.61141 17C6.81801 16.4145 7.20115 15.9074 7.70801 15.5488C8.21487 15.1902 8.82049 14.9976 9.44141 14.9976C10.0623 14.9976 10.6679 15.1902 11.1748 15.5488C11.6817 15.9074 12.0648 16.4145 12.2714 17H19.4414C19.7066 17 19.961 17.1054 20.1485 17.2929C20.3361 17.4804 20.4414 17.7348 20.4414 18C20.4414 18.2652 20.3361 18.5196 20.1485 18.7071C19.961 18.8947 19.7066 19 19.4414 19H12.2714C12.0648 19.5855 11.6817 20.0926 11.1748 20.4512C10.6679 20.8099 10.0623 21.0025 9.44141 21.0025C8.82049 21.0025 8.21487 20.8099 7.70801 20.4512C7.20115 20.0926 6.81801 19.5855 6.61141 19H5.44141C5.17619 19 4.92184 18.8947 4.7343 18.7071C4.54676 18.5196 4.44141 18.2652 4.44141 18C4.44141 17.7348 4.54676 17.4804 4.7343 17.2929C4.92184 17.1054 5.17619 17 5.44141 17H6.61141Z" fill="#262626"/>
</svg>
