<svg width="25" height="25" viewBox="0 0 25 25" fill="none" xmlns="http://www.w3.org/2000/svg">
<path d="M19.683 21.7725L13.383 15.4725C12.883 15.8725 12.308 16.1891 11.658 16.4225C11.008 16.6558 10.3163 16.7725 9.58301 16.7725C7.76634 16.7725 6.22901 16.1431 4.97101 14.8845C3.71301 13.6258 3.08367 12.0885 3.08301 10.2725C3.08301 8.45579 3.71234 6.91846 4.97101 5.66046C6.22967 4.40246 7.76701 3.77313 9.58301 3.77246C11.3997 3.77246 12.9373 4.40179 14.196 5.66046C15.4547 6.91913 16.0837 8.45646 16.083 10.2725C16.083 11.0058 15.9663 11.6975 15.733 12.3475C15.4997 12.9975 15.183 13.5725 14.783 14.0725L21.083 20.3725L19.683 21.7725ZM9.58301 14.7725C10.833 14.7725 11.8957 14.3351 12.771 13.4605C13.6463 12.5858 14.0837 11.5231 14.083 10.2725C14.083 9.02246 13.6457 7.96013 12.771 7.08546C11.8963 6.21079 10.8337 5.77313 9.58301 5.77246C8.33301 5.77246 7.27067 6.21013 6.39601 7.08546C5.52134 7.96079 5.08367 9.02313 5.08301 10.2725C5.08301 11.5225 5.52067 12.5851 6.39601 13.4605C7.27134 14.3358 8.33367 14.7731 9.58301 14.7725Z" fill="#262626"/>
</svg>
