<svg width="42" height="43" viewBox="0 0 42 43" fill="none" xmlns="http://www.w3.org/2000/svg">
<path d="M22.1812 21.7324L18.025 25.8887C17.7042 26.2095 17.5437 26.6108 17.5437 27.0927C17.5437 27.5745 17.7042 27.9898 18.025 28.3387C18.375 28.6887 18.7909 28.8637 19.2727 28.8637C19.7546 28.8637 20.1699 28.6887 20.5187 28.3387L25.9 22.9574C26.25 22.6074 26.425 22.1991 26.425 21.7324C26.425 21.2658 26.25 20.8574 25.9 20.5074L20.475 15.0824C20.125 14.7324 19.7167 14.565 19.25 14.5802C18.7833 14.5953 18.375 14.7773 18.025 15.1262C17.7042 15.4762 17.5362 15.8845 17.521 16.3512C17.5058 16.8178 17.6738 17.2262 18.025 17.5762L22.1812 21.7324ZM21 39.2324C18.5792 39.2324 16.3042 38.7728 14.175 37.8534C12.0458 36.9341 10.1937 35.6875 8.61875 34.1137C7.04375 32.5387 5.79716 30.6866 4.879 28.5574C3.96083 26.4283 3.50116 24.1533 3.5 21.7324C3.5 19.3116 3.95966 17.0366 4.879 14.9074C5.79833 12.7783 7.04492 10.9262 8.61875 9.35117C10.1937 7.77617 12.0458 6.52959 14.175 5.61142C16.3042 4.69326 18.5792 4.23359 21 4.23242C23.4208 4.23243 25.6958 4.69209 27.825 5.61143C29.9542 6.53076 31.8063 7.77734 33.3813 9.35118C34.9563 10.9262 36.2034 12.7783 37.1227 14.9074C38.0421 17.0366 38.5012 19.3116 38.5 21.7324C38.5 24.1533 38.0403 26.4283 37.121 28.5574C36.2017 30.6866 34.9551 32.5387 33.3812 34.1137C31.8062 35.6887 29.9542 36.9358 27.825 37.8552C25.6958 38.7745 23.4208 39.2336 21 39.2324ZM21 35.7324C24.9083 35.7324 28.2187 34.3762 30.9312 31.6637C33.6437 28.9512 35 25.6408 35 21.7324C35 17.8241 33.6437 14.5137 30.9312 11.8012C28.2187 9.08868 24.9083 7.73243 21 7.73242C17.0917 7.73242 13.7812 9.08867 11.0687 11.8012C8.35625 14.5137 7 17.8241 7 21.7324C7 25.6408 8.35625 28.9512 11.0687 31.6637C13.7812 34.3762 17.0917 35.7324 21 35.7324Z" fill="#859CD3"/>
</svg>
