<svg width="42" height="43" viewBox="0 0 42 43" fill="none" xmlns="http://www.w3.org/2000/svg">
<path d="M19.8188 21.7324L23.975 17.5762C24.2958 17.2553 24.4563 16.854 24.4563 16.3722C24.4563 15.8903 24.2958 15.475 23.975 15.1262C23.625 14.7762 23.2091 14.6012 22.7273 14.6012C22.2454 14.6012 21.8301 14.7762 21.4813 15.1262L16.1 20.5074C15.75 20.8574 15.575 21.2658 15.575 21.7324C15.575 22.1991 15.75 22.6074 16.1 22.9574L21.525 28.3824C21.875 28.7324 22.2833 28.8998 22.75 28.8847C23.2167 28.8695 23.625 28.6875 23.975 28.3387C24.2958 27.9887 24.4638 27.5803 24.479 27.1137C24.4942 26.647 24.3262 26.2387 23.975 25.8887L19.8188 21.7324ZM21 4.23242C23.4208 4.23242 25.6958 4.69209 27.825 5.61142C29.9542 6.53075 31.8063 7.77734 33.3813 9.35117C34.9563 10.9262 36.2028 12.7783 37.121 14.9074C38.0392 17.0366 38.4988 19.3116 38.5 21.7324C38.5 24.1533 38.0403 26.4283 37.121 28.5574C36.2017 30.6866 34.9551 32.5387 33.3813 34.1137C31.8063 35.6887 29.9542 36.9353 27.825 37.8534C25.6958 38.7716 23.4208 39.2313 21 39.2324C18.5792 39.2324 16.3042 38.7728 14.175 37.8534C12.0458 36.9341 10.1937 35.6875 8.61875 34.1137C7.04375 32.5387 5.79659 30.6866 4.87725 28.5574C3.95792 26.4283 3.49883 24.1533 3.5 21.7324C3.5 19.3116 3.95967 17.0366 4.879 14.9074C5.79834 12.7783 7.04492 10.9262 8.61875 9.35117C10.1938 7.77617 12.0458 6.529 14.175 5.60967C16.3042 4.69034 18.5792 4.23125 21 4.23242ZM21 7.73242C17.0917 7.73242 13.7813 9.08867 11.0688 11.8012C8.35625 14.5137 7 17.8241 7 21.7324C7 25.6408 8.35625 28.9512 11.0688 31.6637C13.7813 34.3762 17.0917 35.7324 21 35.7324C24.9083 35.7324 28.2188 34.3762 30.9313 31.6637C33.6438 28.9512 35 25.6408 35 21.7324C35 17.8241 33.6438 14.5137 30.9313 11.8012C28.2188 9.08867 24.9083 7.73242 21 7.73242Z" fill="#859CD3"/>
</svg>
