<svg width="24" height="25" viewBox="0 0 24 25" fill="none" xmlns="http://www.w3.org/2000/svg">
<path fill-rule="evenodd" clip-rule="evenodd" d="M24.0187 12.5094C24.0187 19.1419 18.6419 24.5187 12.0094 24.5187C5.37677 24.5187 0 19.1419 0 12.5094C0 5.87677 5.37677 0.5 12.0094 0.5C18.6419 0.5 24.0187 5.87677 24.0187 12.5094ZM12.4398 9.36685C11.2613 9.85321 8.92303 10.8446 5.42498 12.3785C4.8638 12.603 4.5645 12.8275 4.52709 13.0333C4.47759 13.3962 4.93736 13.5409 5.5599 13.7368C5.64323 13.7631 5.72948 13.7902 5.81781 13.8189C6.43511 14.0247 7.25818 14.2679 7.68843 14.2679C8.08125 14.2679 8.5115 14.1182 8.99786 13.7815C12.2714 11.5742 13.955 10.4518 14.0672 10.4331C14.142 10.4144 14.2356 10.3957 14.3104 10.4518C14.3748 10.5001 14.3699 10.59 14.3673 10.6379C14.3669 10.6457 14.3665 10.6524 14.3665 10.6576C14.3259 10.847 12.6994 12.3581 11.739 13.2503C11.3719 13.5914 11.1021 13.842 11.0555 13.8937C10.9634 13.9885 10.8695 14.0783 10.779 14.1648C10.2086 14.7103 9.77643 15.1236 10.7936 15.8018C11.3412 16.1602 11.7669 16.4497 12.2033 16.7465C12.5868 17.0073 12.9786 17.2738 13.4686 17.5976C13.6119 17.6891 13.7492 17.7848 13.8832 17.8783C14.3796 18.2244 14.8317 18.5396 15.3767 18.4954C15.6947 18.458 16.0314 18.1587 16.1997 17.2608C16.6113 15.147 17.3782 10.5266 17.5653 8.63731C17.584 8.46895 17.5653 8.26318 17.5466 8.16965C17.5279 8.07612 17.4905 7.94518 17.3782 7.85165C17.2286 7.73941 17.0041 7.7207 16.9106 7.7207C16.4616 7.73941 15.7695 7.98259 12.4398 9.36685Z" fill="white"/>
</svg>
