<svg width="24" height="25" viewBox="0 0 24 25" fill="none" xmlns="http://www.w3.org/2000/svg">
<path d="M10.8975 16.7844C11.0028 16.8899 11.062 17.0328 11.062 17.1819C11.062 17.3309 11.0028 17.4739 10.8975 17.5794L7.89751 20.5794C7.79204 20.6847 7.64907 20.7439 7.50001 20.7439C7.35094 20.7439 7.20798 20.6847 7.10251 20.5794L4.10251 17.5794C4.00315 17.4728 3.94905 17.3317 3.95163 17.186C3.9542 17.0403 4.01323 16.9012 4.11629 16.7982C4.21935 16.6951 4.35839 16.6361 4.50411 16.6335C4.64984 16.6309 4.79088 16.685 4.89751 16.7844L6.93751 18.8234V5.18188C6.93751 5.0327 6.99677 4.88963 7.10226 4.78414C7.20775 4.67865 7.35082 4.61938 7.50001 4.61938C7.64919 4.61938 7.79226 4.67865 7.89775 4.78414C8.00324 4.88963 8.06251 5.0327 8.06251 5.18188V18.8234L10.1025 16.7844C10.208 16.679 10.3509 16.6199 10.5 16.6199C10.6491 16.6199 10.792 16.679 10.8975 16.7844ZM19.8975 7.78438L16.8975 4.78438C16.792 4.67905 16.6491 4.61988 16.5 4.61988C16.3509 4.61988 16.208 4.67905 16.1025 4.78438L13.1025 7.78438C13.0031 7.89102 12.9491 8.03205 12.9516 8.17778C12.9542 8.3235 13.0132 8.46254 13.1163 8.5656C13.2194 8.66866 13.3584 8.72769 13.5041 8.73027C13.6498 8.73284 13.7909 8.67874 13.8975 8.57938L15.9375 6.54032V20.1819C15.9375 20.3311 15.9968 20.4741 16.1023 20.5796C16.2077 20.6851 16.3508 20.7444 16.5 20.7444C16.6492 20.7444 16.7923 20.6851 16.8978 20.5796C17.0032 20.4741 17.0625 20.3311 17.0625 20.1819V6.54032L19.1025 8.57938C19.2091 8.67874 19.3502 8.73284 19.4959 8.73027C19.6416 8.72769 19.7807 8.66866 19.8837 8.5656C19.9868 8.46254 20.0458 8.3235 20.0484 8.17778C20.051 8.03205 19.9969 7.89102 19.8975 7.78438Z" fill="#262626"/>
</svg>
