<svg width="24" height="25" viewBox="0 0 24 25" fill="none" xmlns="http://www.w3.org/2000/svg">
<path d="M20.4567 2.84203C19.8541 2.28998 17.4146 0.539374 11.9845 0.517582C11.9845 0.517582 5.57706 0.132604 2.43213 2.96551C0.690664 4.68705 0.0807824 7.20035 0.0146508 10.3165C-0.0514809 13.4327 -0.132309 19.2729 5.56236 20.8564V23.2753C5.56236 23.2753 5.56236 24.2559 6.17959 24.452C6.96582 24.699 7.42874 23.9508 8.18558 23.1518C8.59707 22.7087 9.17021 22.0622 9.59639 21.5683C12.0192 21.792 14.4627 21.6153 16.8268 21.0453C17.613 20.7911 22.0659 20.2317 22.7933 14.3843C23.5649 8.36257 22.4553 4.5563 20.4567 2.84203ZM21.118 13.9557C20.5008 18.8298 16.8929 19.1349 16.2316 19.3455C14.1975 19.8412 12.0977 20.0201 10.0079 19.8758C10.0079 19.8758 7.53896 22.7813 6.76742 23.5804C6.7245 23.6305 6.67014 23.6698 6.60881 23.6951C6.54748 23.7204 6.48096 23.7308 6.41473 23.7257C6.28246 23.6893 6.24572 23.5368 6.24572 23.3116C6.24572 23.0864 6.24572 19.2947 6.24572 19.2947C1.42546 17.9654 1.70468 12.9969 1.76347 10.3965C1.82225 7.79599 2.31456 5.66041 3.78415 4.22216C6.42207 1.8614 11.8669 2.21007 11.8669 2.21007C16.4594 2.21007 18.6638 3.59747 19.1708 4.05509C20.8829 5.49334 21.7426 8.92188 21.118 13.9557Z" fill="white"/>
<path d="M14.075 10.0999C14.0925 9.84798 14.0637 9.59459 13.9904 9.35666C13.9172 9.11874 13.8012 8.90176 13.6502 8.72023C13.4992 8.5387 13.3168 8.39679 13.1149 8.30399C12.9131 8.21119 12.6967 8.16963 12.48 8.18209" stroke="white" stroke-width="0.8" stroke-linecap="round" stroke-linejoin="round"/>
<path d="M15.6732 10.7401C15.7033 10.2145 15.6313 9.68805 15.4614 9.19151C15.2915 8.69498 15.0271 8.23838 14.6837 7.84846C13.9308 7.06247 12.9114 6.60781 11.8398 6.58008" stroke="white" stroke-width="0.8" stroke-linecap="round" stroke-linejoin="round"/>
<path d="M17.2739 11.38C17.3105 10.5215 17.182 9.6641 16.8964 8.8604C16.6108 8.0567 16.174 7.32364 15.6129 6.70618C15.0733 6.14223 14.4332 5.69908 13.7302 5.40288C13.0273 5.10667 12.2758 4.9634 11.52 4.98151" stroke="white" stroke-width="0.8" stroke-linecap="round" stroke-linejoin="round"/>
<path d="M12.3801 14.1318C12.5026 14.1408 12.6258 14.1233 12.7408 14.0804C12.8558 14.0375 12.9599 13.9703 13.0458 13.8835L13.5044 13.314C13.6614 13.1434 13.8744 13.033 14.1058 13.0023C14.3372 12.9716 14.5722 13.0225 14.7693 13.146C15.1618 13.3695 15.542 13.6132 15.9085 13.8762C16.2561 14.1318 16.9589 14.7086 16.9589 14.7159C17.1244 14.8481 17.2348 15.0359 17.2689 15.2433C17.303 15.4508 17.2585 15.6633 17.1438 15.8404C16.8921 16.272 16.5725 16.6615 16.197 16.9941C15.926 17.237 15.5893 17.3968 15.2279 17.4541C15.1814 17.462 15.1339 17.462 15.0874 17.4541C14.9495 17.4562 14.8122 17.4364 14.6806 17.3957C13.7586 17.0811 12.8713 16.6749 12.0324 16.1836C11.2515 15.7607 10.509 15.2721 9.81324 14.7232C9.46369 14.4502 9.13027 14.1577 8.81463 13.847H8.77764C8.46481 13.5312 8.16854 13.1997 7.88999 12.854C7.33644 12.1653 6.84161 11.4327 6.41056 10.6634C5.91262 9.8364 5.50356 8.9603 5.19003 8.04937C5.14633 7.91734 5.12387 7.77937 5.12346 7.64047C5.119 7.59433 5.119 7.54788 5.12346 7.50174C5.18036 7.14682 5.34253 6.8165 5.58948 6.5525C5.87402 6.12716 6.22621 5.74992 6.63248 5.43532C6.813 5.32162 7.02957 5.27739 7.24097 5.31104C7.45238 5.3447 7.64388 5.4539 7.77903 5.61786C7.77903 5.61786 8.3708 6.34804 8.6223 6.65472C8.87381 6.9614 9.18449 7.49444 9.36202 7.77921C9.484 7.97656 9.53297 8.20951 9.50061 8.43847C9.46824 8.66744 9.35654 8.87826 9.18449 9.03511L8.60751 9.48052C8.51942 9.56675 8.45132 9.6708 8.4079 9.78552C8.36448 9.90023 8.34678 10.0229 8.35601 10.145C8.63787 11.0875 9.15349 11.9457 9.85614 12.6418C10.5588 13.338 11.4263 13.8501 12.3801 14.1318Z" fill="white"/>
</svg>
