<svg width="24" height="25" viewBox="0 0 24 25" fill="none" xmlns="http://www.w3.org/2000/svg">
<path fill-rule="evenodd" clip-rule="evenodd" d="M20.5031 3.98501C18.2473 1.73878 15.2471 0.50114 12.0504 0.5C5.4634 0.5 0.102564 5.83065 0.100272 12.383C0.099126 14.4776 0.649764 16.5221 1.69546 18.3239L0 24.4825L6.33491 22.83C8.0802 23.7771 10.0455 24.2756 12.0453 24.2762H12.0504C18.6363 24.2762 23.9977 18.945 24 12.3927C24.0011 9.2171 22.7595 6.2318 20.5031 3.98558V3.98501ZM12.0504 22.2693H12.0464C10.2644 22.2688 8.51627 21.7924 6.991 20.8926L6.62828 20.6784L2.86893 21.659L3.87223 18.0139L3.63615 17.6401C2.64203 16.0674 2.1166 14.2497 2.11775 12.3836C2.12004 6.93781 6.57556 2.5069 12.0545 2.5069C14.7073 2.50804 17.201 3.53656 19.0763 5.40386C20.9517 7.27059 21.9837 9.75273 21.9825 12.3915C21.9802 17.8379 17.5247 22.2688 12.0504 22.2688V22.2693ZM17.4983 14.872C17.1998 14.7232 15.7319 14.0052 15.4579 13.9061C15.1841 13.8069 14.9853 13.7574 14.7864 14.0548C14.5876 14.3523 14.0152 15.0213 13.841 15.219C13.6668 15.4173 13.4926 15.4418 13.1941 15.293C12.8956 15.1443 11.9335 14.8309 10.7927 13.8195C9.9052 13.032 9.3058 12.0599 9.13167 11.7624C8.95747 11.465 9.11333 11.3043 9.26227 11.1567C9.39633 11.0234 9.5608 10.8097 9.71033 10.6365C9.85993 10.4632 9.9092 10.3391 10.0089 10.1413C10.1086 9.94301 10.0587 9.76983 9.98427 9.62106C9.90973 9.47235 9.31273 8.01074 9.06347 7.41644C8.82107 6.83752 8.57473 6.91615 8.39193 6.90647C8.21773 6.89792 8.01893 6.89621 7.81953 6.89621C7.62013 6.89621 7.29693 6.97029 7.02307 7.26774C6.7492 7.56515 5.97794 8.28369 5.97794 9.74471C5.97794 11.2057 7.04773 12.6183 7.19727 12.8166C7.3468 13.0149 9.30293 16.0139 12.2979 17.3005C13.0102 17.6065 13.5665 17.7894 14.0003 17.9262C14.7154 18.1524 15.3663 18.1205 15.8808 18.0441C16.4544 17.9587 17.6473 17.3256 17.896 16.6321C18.1447 15.9386 18.1447 15.3437 18.0702 15.2201C17.9957 15.0964 17.7963 15.0218 17.4978 14.8731L17.4983 14.872Z" fill="white"/>
</svg>
