<svg width="194" height="46" viewBox="0 0 194 46" fill="none" xmlns="http://www.w3.org/2000/svg">
<path fill-rule="evenodd" clip-rule="evenodd" d="M48.5981 21.1058L49.2094 18.995L47.0699 19.0732C46.9171 19.0732 45.6181 19.0732 44.3191 18.1351C44.3955 18.1351 44.4719 18.1351 44.6247 18.1351C45.9237 18.1351 47.1463 17.3533 47.6812 16.1806L48.5981 14.148C47.452 14.148 46.3822 13.9917 46.3822 13.9917C46.3822 13.9917 45.5416 13.9135 44.6247 12.8972C43.937 12.1936 43.0965 11.8027 42.1795 11.8027C41.7975 11.8027 41.4154 11.8809 41.1097 11.9591C41.1862 11.8027 41.1862 11.6463 41.2626 11.4118C41.5682 9.45737 40.3456 7.97199 40.3456 7.97199L38.741 5.93937L37.7476 8.2847C37.7476 8.2847 37.5184 8.83194 37.0599 9.14465C36.9071 8.44105 36.6014 7.65928 35.9137 6.8775C34.6147 5.4703 32.9336 5.23577 32.0931 5.23577C31.711 5.23577 31.4054 5.31395 31.329 5.31395L29.4187 5.70484C29.4951 5.23577 29.8007 4.53217 30.1828 3.82857L31.2526 2.10866L28.5781 2.42137L27.7376 0.545108L26.133 1.56142L24.6047 -0.00213623L23.0765 1.56142L21.3954 0.701463L20.6313 2.49955L17.9569 2.18684L19.0266 3.90675C19.4851 4.61035 19.7143 5.39212 19.7907 5.78301L17.9569 5.39212H17.8804C17.804 5.39212 17.4984 5.31395 17.1163 5.31395C16.2758 5.31395 14.6711 5.54848 13.2957 6.95568C12.608 7.73745 12.2259 8.51923 12.1495 9.22283C11.6911 8.9883 11.4618 8.44105 11.4618 8.44105L10.4685 6.09572L8.86381 8.12834C8.63457 8.36288 7.71763 9.77007 7.94686 11.49C7.94686 11.6463 8.02328 11.8027 8.09969 12.0372C7.79404 11.8027 7.41198 11.7245 7.02992 11.7245C6.11297 11.7245 5.27244 12.1154 4.58473 12.819C3.66778 13.8353 2.82725 13.9135 2.82725 13.9135C2.82725 13.9135 1.98672 14.0698 0.611297 14.0698L1.52824 16.1806C2.06313 17.3533 3.28572 18.1351 4.58473 18.1351C4.66114 18.1351 4.73755 18.1351 4.89038 18.1351C3.66778 19.0732 2.36878 19.0732 2.21595 19.0732L0 18.995L0.687709 21.1058C0.993358 22.2003 2.13954 23.9984 4.20267 24.1548C3.97343 25.1711 3.43855 26.2656 2.36878 26.7346L0.687709 27.3601L1.52824 28.9236C1.98672 29.7836 3.20931 30.7217 4.81397 30.7217C5.19603 30.7217 5.50168 30.7217 5.88374 30.6435C5.96015 31.0344 6.03656 31.4253 6.18939 31.8162C6.64786 33.3016 6.2658 34.396 6.2658 34.396L5.50168 36.116L7.25916 36.585C7.25916 36.585 7.79404 36.7414 8.48175 36.7414C8.7874 36.7414 9.09305 36.7414 9.32228 36.6632C9.55152 36.585 9.70434 36.585 9.93358 36.5068C10.1628 36.8977 10.4685 37.2886 10.7741 37.6795C11.9203 38.8522 13.525 39.4776 15.5117 39.4776H16.9635L13.9834 40.7284L16.2758 41.8229C17.1163 42.2138 18.1097 42.7611 19.103 43.0738L18.7974 43.8555L19.5615 44.2464C19.6379 44.2464 21.1662 44.95 23.6114 45.1064C23.6114 45.1064 24.2227 45.1064 24.5283 45.1064C24.834 45.1064 25.4452 45.1064 25.4452 45.1064C27.9669 44.95 29.4187 44.2464 29.4951 44.2464L30.2592 43.8555L29.9536 43.0738C30.9469 42.6829 32.0167 42.2138 32.7808 41.8229L34.9968 40.7284L32.0167 39.4776H33.4685C35.5317 39.4776 37.1363 38.8522 38.2061 37.6795C38.5117 37.3668 38.8174 36.9759 39.0466 36.5068C39.1994 36.585 39.4287 36.6632 39.6579 36.6632C39.9636 36.7414 40.1928 36.7414 40.4984 36.7414C41.1862 36.7414 41.721 36.585 41.721 36.585L43.4785 36.116L42.7144 34.4742C42.7144 34.396 42.2559 33.3797 42.7908 31.8944C42.9436 31.5035 43.02 31.1126 43.0965 30.7217C43.4021 30.7999 43.7842 30.7999 44.1662 30.7999C46.2294 30.7999 47.2991 29.3145 47.452 28.9236L48.2925 27.3601L46.6878 26.6565C45.5416 26.1874 45.0832 25.0929 44.8539 24.0766C47.1463 23.9202 48.2161 22.1222 48.5981 21.1058Z" fill="#D8E8FF"/>
<path fill-rule="evenodd" clip-rule="evenodd" d="M24.6048 6.40845C22.9238 6.40845 21.6247 6.95569 21.3955 7.65929L24.6048 8.98831L27.8905 7.65929C27.5849 6.95569 26.2859 6.40845 24.6048 6.40845Z" fill="#D8E8FF"/>
<path fill-rule="evenodd" clip-rule="evenodd" d="M24.6807 41.1975C23.6109 41.1975 22.1591 40.963 21.4714 40.8066L20.6309 43.0738C21.1657 43.3083 22.9996 43.621 24.6043 43.621C26.2089 43.621 28.0428 43.2301 28.5777 43.0738L27.7372 40.8066C27.1259 40.963 25.6741 41.1975 24.6807 41.1975Z" fill="#D8E8FF"/>
<path fill-rule="evenodd" clip-rule="evenodd" d="M30.871 38.9304C30.2597 39.3213 28.8842 39.7904 28.1201 40.1031L28.8078 41.9794C30.0304 41.6666 31.0238 41.1976 31.8643 40.8067L30.4889 40.3376L30.871 38.9304Z" fill="#D8E8FF"/>
<path fill-rule="evenodd" clip-rule="evenodd" d="M18.3381 38.9304L18.7201 40.3376L17.3447 40.8067C18.1853 41.2758 19.1786 41.6666 20.4012 41.9794L21.0889 40.1031C20.3248 39.7904 18.9494 39.2431 18.3381 38.9304Z" fill="#D8E8FF"/>
<path fill-rule="evenodd" clip-rule="evenodd" d="M24.6028 4.21944C25.9018 4.21944 27.1244 4.53215 28.1178 5.07939C28.1942 4.76668 28.347 4.3758 28.4999 3.98491L28.1178 4.06308L27.7357 4.14126L27.5829 3.75037L27.1244 2.65589L26.2075 3.12495L25.8254 3.28131L25.5962 3.12495L24.6028 2.10864L23.6095 3.12495L23.3038 3.43766L22.9218 3.28131L22.1576 2.73406L21.6992 3.82855L21.5463 4.21944L21.1643 4.14126L20.7822 4.06308C20.9351 4.45397 21.0879 4.84486 21.1643 5.15757C22.0812 4.53215 23.3038 4.21944 24.6028 4.21944Z" fill="#D8E8FF"/>
<path fill-rule="evenodd" clip-rule="evenodd" d="M44.1659 16.4151C44.3187 16.4932 44.4715 16.4932 44.7007 16.4932C45.3885 16.4932 46.1526 16.0242 46.3818 15.4769C46.3818 15.4769 45.0828 15.3988 43.631 13.9134C43.1725 13.4443 42.714 13.288 42.2556 13.288C41.6443 13.288 41.1094 13.6007 41.1094 13.6007C42.7904 14.617 43.1725 16.1024 44.1659 16.4151Z" fill="#D8E8FF"/>
<path fill-rule="evenodd" clip-rule="evenodd" d="M4.58536 16.5716C4.73819 16.5716 4.89101 16.5716 5.12025 16.4934C6.11361 16.1807 6.49567 14.6172 8.17674 13.679C8.17674 13.679 7.71826 13.3663 7.03055 13.3663C6.64849 13.3663 6.11361 13.5227 5.65513 13.9918C4.2033 15.4771 2.9043 15.5553 2.9043 15.5553C3.13353 16.0244 3.82124 16.5716 4.58536 16.5716Z" fill="#D8E8FF"/>
<path fill-rule="evenodd" clip-rule="evenodd" d="M43.6304 27.2819C42.3314 26.5783 41.4909 24.7803 41.2616 24.1548C41.0324 27.6728 39.3513 30.1745 37.3646 32.5198C36.3713 33.7707 35.9892 34.9434 35.9892 34.9434C35.9892 34.9434 36.2184 33.6143 37.059 32.5198C38.8929 30.2527 40.6503 27.4383 40.8032 24.1548C40.8796 21.8877 40.3447 20.0114 39.4277 18.526C39.9626 20.0896 39.8862 22.044 38.1287 23.8421C38.1287 23.8421 41.4909 19.6987 36.7533 15.4771C34.843 13.8354 32.7799 12.8972 31.7101 12.1155C35.5307 13.3663 37.441 11.9591 37.441 11.9591C36.2184 13.0536 34.6138 13.0536 33.6204 12.8972C33.9261 13.0536 34.1553 13.1318 34.4609 13.3663C37.6703 15.1644 40.6503 18.1352 41.1088 22.2786C41.9493 26.2656 43.6304 27.2819 43.6304 27.2819ZM44.6238 22.5913H44.7002C46.5341 22.5913 47.1454 20.6368 47.1454 20.6368C46.8397 20.6368 44.1653 20.5587 42.255 18.057C41.0324 16.4152 39.9626 15.008 37.9759 14.4608H37.7467L37.6703 14.2263C37.5938 13.9136 37.8231 13.6008 38.2816 13.2881C41.1088 11.4119 39.1985 8.98836 39.1985 8.98836C39.1985 8.98836 38.4344 10.8646 36.6005 10.8646C36.5241 10.8646 36.5241 10.8646 36.4477 10.8646C36.2184 10.8646 36.0656 10.8646 35.8364 10.7864L35.5307 10.7083C35.5307 10.7083 36.0656 9.30107 34.843 7.97205C33.8496 7.03392 32.7799 6.87756 32.0922 6.87756C31.7865 6.87756 31.5573 6.95574 31.5573 6.95574C32.1686 7.8157 32.6271 9.14472 31.9393 10.0047C31.328 10.7083 29.7998 10.7864 29.7998 11.8809C29.7998 12.35 30.1819 12.8972 30.946 13.3663C33.2384 14.8517 35.4543 16.728 36.3712 19.386C37.5174 22.5913 36.2184 24.7803 34.3845 26.0311C34.3845 26.0311 34.9958 26.5783 35.8364 26.6565C35.9892 26.6565 36.142 26.6565 36.3712 26.6565C38.2051 26.6565 39.1221 25.7966 39.1221 25.7966C39.1221 25.7966 38.9693 26.9692 38.0523 28.0637C37.2118 29.08 36.0656 29.7055 34.3081 29.7055C34.3081 29.7055 34.2317 30.5654 34.9958 31.269C35.4543 31.7381 36.6005 31.8944 36.6005 31.8944C36.6005 31.8944 34.4609 32.3635 34.2317 35.5688C34.0789 37.2887 33.6968 37.9141 33.6968 37.9141C38.5872 37.9141 38.5108 33.6143 38.5108 33.6143C38.5108 33.6143 38.8164 34.8652 40.1919 35.2561C40.3447 35.3342 40.4975 35.3342 40.7267 35.3342C41.1852 35.3342 41.5673 35.2561 41.5673 35.2561C41.5673 35.2561 40.8796 33.6925 41.5673 31.5035C42.1786 29.7055 42.0258 28.3764 42.0258 28.3764C42.0258 28.3764 42.7135 29.3927 44.3181 29.3927C45.6935 29.3927 46.3048 28.2983 46.3048 28.2983C43.0191 26.8911 43.3248 22.4349 43.3248 22.4349C43.3248 22.4349 43.7832 22.5913 44.6238 22.5913Z" fill="#D8E8FF"/>
<path fill-rule="evenodd" clip-rule="evenodd" d="M11.844 32.5978C9.85728 30.2525 8.17621 27.7508 7.94697 24.2328C7.71773 24.8582 6.8772 26.6563 5.5782 27.3599C5.5782 27.3599 7.25926 26.3436 8.02338 22.2784C8.55827 18.135 11.4619 15.1642 14.6712 13.3661C14.9769 13.2098 15.2825 13.0534 15.5118 12.8971C14.5184 13.0534 12.9138 13.0534 11.6912 11.9589C11.6912 11.9589 13.6015 13.3661 17.4221 12.1153C16.3523 12.8189 14.2892 13.8352 12.3789 15.4769C7.64132 19.6985 11.0035 23.8419 11.0035 23.8419C9.32239 22.0438 9.24598 20.0894 9.70445 18.5258C8.78751 20.0112 8.25262 21.8875 8.32903 24.1546C8.48186 27.4381 10.2393 30.2525 12.0732 32.5197C12.9902 33.6141 13.143 34.9432 13.143 34.9432C13.143 34.9432 12.9138 33.7705 11.844 32.5978ZM12.6845 31.8161C12.6845 31.8161 13.8307 31.6597 14.2892 31.1906C15.0533 30.487 14.9769 29.6271 14.9769 29.6271C13.2194 29.6271 12.1496 29.0017 11.2327 27.9853C10.3157 26.8909 10.1629 25.7182 10.1629 25.7182C10.1629 25.7182 11.0799 26.5781 12.9138 26.5781C13.0666 26.5781 13.2194 26.5781 13.4486 26.5781C14.2892 26.5 14.9005 25.9527 14.9005 25.9527C12.9902 24.7019 11.6912 22.5911 12.8373 19.3076C13.7543 16.7278 16.0467 14.7733 18.2626 13.2879C19.0267 12.8189 19.4088 12.2716 19.4088 11.8026C19.4088 10.7081 17.8806 10.7081 17.2693 9.9263C16.5815 9.06635 17.04 7.73733 17.6513 6.87737C17.6513 6.87737 17.4221 6.79919 17.1164 6.79919C16.5051 6.79919 15.359 6.95555 14.442 7.97186C13.2194 9.30088 13.7543 10.7081 13.7543 10.7081L13.4486 10.7863C13.2194 10.8644 13.0666 10.8644 12.8373 10.8644C12.7609 10.8644 12.7609 10.8644 12.6845 10.8644C10.927 10.8644 10.0865 8.98817 10.0865 8.98817C10.0865 8.98817 8.17621 11.4117 11.0035 13.2879C11.4619 13.6007 11.6912 13.9134 11.6148 14.2261L11.5383 14.4606H11.3091C9.32239 15.0079 8.25262 16.4151 7.03003 18.0568C5.11972 20.5585 2.4453 20.6366 2.13965 20.6366C2.13965 20.6366 2.75095 22.5911 4.58484 22.5911H4.66125C5.50178 22.5911 5.88384 22.2002 5.88384 22.2002C5.88384 22.2002 6.18949 26.7345 2.90377 28.0635C2.90377 28.0635 3.51507 29.158 4.89049 29.158C6.57155 29.158 7.18285 28.1417 7.18285 28.1417C7.18285 28.1417 7.10644 29.4707 7.64132 31.2688C8.32903 33.4578 7.64132 35.0213 7.64132 35.0213C7.64132 35.0213 8.02338 35.0995 8.48186 35.0995C8.63468 35.0995 8.86392 35.0995 9.01674 35.0213C10.3922 34.7086 10.6978 33.3796 10.6978 33.3796C10.6978 33.3796 10.545 37.6794 15.5118 37.6794C15.5118 37.6794 15.0533 37.054 14.9769 35.3341C14.7477 32.2069 12.6845 31.8161 12.6845 31.8161Z" fill="#D8E8FF"/>
<path fill-rule="evenodd" clip-rule="evenodd" d="M23.5347 15.868H25.8271V16.6498C25.5214 16.3371 24.9865 16.4153 24.9865 16.4153V17.588C24.9865 17.588 24.9865 18.1352 25.2158 18.4479H24.0696C24.2988 18.2134 24.2988 17.588 24.2988 17.588V16.4153C24.2988 16.4153 23.764 16.3371 23.4583 16.6498V15.868H23.5347ZM21.0131 15.9462C21.0895 16.0244 21.1659 16.1026 21.2423 16.2589C21.2423 16.2589 21.2423 16.3371 21.3188 16.3371C21.3952 16.4153 21.4716 16.5716 21.548 16.6498C21.548 16.6498 21.548 16.728 21.6244 16.728C21.7008 16.8844 21.7772 16.9625 21.8536 17.1189C22.5414 18.3697 23.6875 19.1515 24.6809 19.1515C25.6743 19.1515 26.8204 18.3697 27.5081 17.1189C27.5846 16.9625 27.661 16.8062 27.7374 16.728C27.7374 16.728 27.7374 16.728 27.7374 16.6498C27.8138 16.5716 27.8902 16.4153 27.9666 16.3371C27.9666 16.3371 27.9666 16.2589 28.043 16.2589C28.1194 16.1808 28.1959 16.0244 28.2723 15.9462C28.2723 15.9462 28.2723 15.9462 28.3487 15.868C28.7307 15.4772 29.1128 15.1644 29.7241 15.0081L29.4949 14.8517L28.5015 14.2263L27.5081 13.6009L24.7573 15.1644L22.0065 13.6009L21.0131 14.2263L19.8669 14.9299L19.6377 15.0863C20.1726 15.2426 20.5546 15.5553 21.0131 15.9462C20.9367 15.9462 20.9367 15.9462 21.0131 15.9462Z" fill="#D8E8FF"/>
<path fill-rule="evenodd" clip-rule="evenodd" d="M23.7643 10.7082V11.49L23.6115 11.4118C23.6115 11.4118 23.3822 11.3336 23.0002 11.0209C22.3889 10.5518 22.3889 10.0828 22.3889 10.0828L23.7643 10.7082ZM24.3756 14.3044V9.53553L21.3955 8.44104L22.1596 13.0535L24.3756 14.3044Z" fill="#D8E8FF"/>
<path fill-rule="evenodd" clip-rule="evenodd" d="M25.5227 10.7082L26.8981 10.1609C26.8981 10.1609 26.8981 10.63 26.2868 11.0991C25.9047 11.4118 25.6755 11.4118 25.6755 11.49L25.5227 11.5681V10.7082ZM27.0509 13.0535L27.815 8.44104L24.835 9.45735V14.2262L27.0509 13.0535Z" fill="#D8E8FF"/>
<path fill-rule="evenodd" clip-rule="evenodd" d="M20.1719 25.3275C20.4776 25.4056 20.7832 25.4838 21.0125 25.4838V25.4056C21.0125 25.3275 21.0125 25.3275 21.0889 25.2493C21.1653 25.0148 21.1653 24.702 21.1653 24.4675C21.0125 24.3893 20.8596 24.233 20.7832 24.0766C20.7068 23.8421 20.554 23.7639 20.3248 23.7639C20.0191 23.7639 19.7135 23.9203 19.5606 23.9984C19.4078 24.6239 19.8663 25.2493 20.1719 25.3275Z" fill="#D8E8FF"/>
<path fill-rule="evenodd" clip-rule="evenodd" d="M26.7451 22.8256C26.2102 23.451 25.1404 24.5455 25.064 24.5455L24.9876 24.6237L21.5491 24.5455C21.5491 24.8582 21.4727 25.171 21.4727 25.4055V25.4837L25.5225 26.2654C25.981 25.9527 27.1272 25.0928 27.5856 24.7801C27.28 24.311 27.2036 23.6856 27.28 23.2947C27.0507 23.1383 26.8979 22.982 26.7451 22.8256Z" fill="#D8E8FF"/>
<path fill-rule="evenodd" clip-rule="evenodd" d="M27.2024 18.6042C26.4382 19.386 25.6741 19.6987 24.9864 19.7768C24.8336 19.7768 24.7572 19.7768 24.6044 19.7768C24.4515 19.7768 24.3751 19.7768 24.2223 19.7768C24.0695 19.7768 23.9931 19.7768 23.8402 19.6987C23.7638 19.855 23.7638 20.2459 23.9166 20.6368C24.0695 20.9495 24.3751 21.184 24.7572 21.3404L24.91 21.4186V21.5749C24.91 21.6531 24.91 22.6694 26.0562 22.904C26.209 22.7476 26.3618 22.5131 26.5147 22.4349C26.2854 21.8876 26.4382 21.3404 26.7439 21.1059C26.7439 21.184 26.5911 22.5131 27.6608 22.9821L27.8137 23.0603L27.7372 23.2167C27.7372 23.2948 27.3552 24.5457 28.6542 25.0147L28.8834 25.0929L28.807 25.3275C28.807 25.4056 28.2721 26.5783 29.4183 27.2037H31.9399V25.1711C31.023 25.0929 30.6409 24.3111 30.5645 23.7639C30.1824 23.6857 29.8004 23.5294 29.5711 23.2167C29.0363 22.5131 29.4947 21.8095 29.4947 21.8095C29.4947 21.8095 29.4947 22.5131 29.8768 22.9821C30.106 23.2167 30.3353 23.373 30.7173 23.373H30.8701V23.5294C30.8701 23.6076 30.9466 24.5457 31.8635 24.6239V20.4023C31.8635 19.7768 32.0163 19.0732 32.2456 18.526H27.2024V18.6042Z" fill="#D8E8FF"/>
<path fill-rule="evenodd" clip-rule="evenodd" d="M20.4016 20.5587L20.3252 23.2168L20.6308 23.2949L21.3186 20.7151L20.9365 19.9333L20.4016 20.5587Z" fill="#D8E8FF"/>
<path fill-rule="evenodd" clip-rule="evenodd" d="M22.007 30.409C21.9306 30.409 21.8542 30.3308 21.8542 30.2526C21.8542 30.1744 21.9306 30.0963 22.007 30.0963C22.0835 30.0963 22.1599 30.1744 22.1599 30.2526C22.1599 30.409 22.0835 30.409 22.007 30.409ZM28.4257 32.8325C28.9606 32.9888 29.037 34.6306 29.8775 34.7869C29.9539 34.7869 30.0303 34.7869 30.1067 34.7869C30.336 34.7869 30.4888 34.7087 30.6416 34.4742C30.6416 34.4742 30.2596 33.8488 29.9539 33.3797C29.5719 32.8325 29.2662 32.1289 28.5021 32.1289H28.4257C28.1964 32.1289 28.0436 32.2852 28.0436 32.2852C27.738 32.1289 27.4323 32.0507 27.2031 32.0507C26.7446 32.0507 26.3625 32.2852 26.2097 32.2852L24.4522 32.1289C24.223 32.1289 23.9938 31.8162 23.9174 31.738V31.6598C23.9174 31.5816 23.9174 31.5816 23.9174 31.5035C23.8409 30.0963 22.8476 29.549 22.4655 29.549C22.4655 29.549 22.5419 29.3145 22.3891 29.1581L22.007 29.6272L20.7845 29.0018L21.625 30.0181L20.9373 30.878C20.8609 30.9562 20.8609 31.1126 20.8609 31.1907L21.1665 31.5035L21.5486 31.2689H21.625C21.7014 31.2689 21.9306 31.2689 22.007 31.2689C22.1599 31.2689 22.3127 31.2689 22.3127 31.1126C22.2363 31.6598 21.7778 32.5198 22.0835 33.2234L22.3127 33.7706L20.8609 33.5361L20.1732 34.7087C19.9439 35.0996 19.9439 35.4905 20.0967 35.7251L20.326 36.0378C20.326 36.0378 20.708 35.6469 20.7845 35.4123L20.8609 35.1778C20.7845 35.0996 20.7845 34.9433 20.8609 34.8651L21.3193 34.1615L23.0004 34.5524L23.0768 34.396C23.2296 34.1615 23.3825 34.1615 23.5353 34.1615C23.6117 34.1615 23.6881 34.1615 23.7645 34.1615C24.0702 34.2397 24.6051 34.3179 25.1399 34.3179C25.7512 34.3179 26.2861 34.2397 26.5918 33.8488C27.2031 34.7869 28.5021 34.9433 28.3493 35.4123L28.0436 37.0541C28.2728 37.0541 28.5021 37.0541 28.6549 36.9759L28.9606 35.256C28.9606 35.0996 29.037 34.7869 29.037 34.7869C28.8841 34.6306 28.6549 34.396 28.4257 34.0833C28.1964 33.6143 28.3493 33.3797 28.12 32.8325C28.1964 32.9107 28.2728 32.8325 28.4257 32.8325Z" fill="#D8E8FF"/>
<path fill-rule="evenodd" clip-rule="evenodd" d="M19.6368 34.3179C19.6368 34.3179 20.1717 34.0834 20.2481 33.927L20.1717 33.7707C20.0952 33.6143 20.0952 33.5361 20.2481 33.458L20.8594 32.9889L21.8527 33.2234C21.8527 33.2234 21.6999 32.9889 21.6999 32.6762L20.7065 32.4417L19.7896 32.9889C19.4075 33.3016 19.3311 33.7707 19.484 34.0834L19.6368 34.3179Z" fill="#D8E8FF"/>
<path fill-rule="evenodd" clip-rule="evenodd" d="M26.8975 37.054C27.0503 37.054 27.2795 37.054 27.5088 37.054C27.5088 37.054 28.0436 35.4904 28.0436 35.4122C27.738 35.2559 27.1267 34.9432 26.8975 34.7868C27.0503 35.0213 27.4323 35.334 27.3559 35.4904L26.8975 37.054Z" fill="#D8E8FF"/>
<path fill-rule="evenodd" clip-rule="evenodd" d="M31.9394 27.6729H17.3447V33.3017C17.3447 35.5689 18.9494 37.0542 21.3946 37.0542C23.3813 37.0542 23.9162 37.1324 24.6803 37.9142C25.2152 37.3669 25.5972 37.2106 26.5142 37.1324V37.0542L26.9727 35.5689L26.2085 34.6307C25.9029 34.7089 25.6736 34.7871 25.2152 34.7871C24.7567 34.7871 24.2982 34.7089 23.7633 34.6307C23.6869 34.6307 23.6869 34.6307 23.6105 34.6307C23.5341 34.6307 23.5341 34.6307 23.5341 34.6307L23.4577 34.7871L23.3049 35.0998L22.9228 35.0216L21.5474 34.7089L21.3182 35.0216L21.471 35.178L21.3946 35.4907C21.3182 35.8034 20.9361 36.1943 20.8597 36.2725L20.4776 36.6633L20.172 36.2725L19.9427 35.9597C19.7135 35.647 19.6371 35.2561 19.7899 34.7871L19.4079 34.9434L19.255 34.5525L19.1022 34.2398C18.873 33.7708 18.9494 32.989 19.5607 32.5981L20.7069 31.9727L21.7766 32.2072C21.7766 32.129 21.853 31.7382 21.853 31.66H21.7766L21.1653 31.8945L20.554 31.5036C20.554 31.5036 20.3248 31.2691 20.554 31.0346L21.1653 30.1746L19.6371 28.142L21.853 29.0801L22.0059 28.9238L22.3115 28.5329L22.6936 28.8456C22.77 28.9238 22.8464 29.0801 22.8464 29.1583C23.4577 29.3928 24.6039 30.1746 24.6803 31.3473L24.2982 31.5036C24.3746 31.5818 24.4511 31.66 24.4511 31.66L26.0557 31.8163C26.1321 31.8163 26.1321 31.8163 26.2085 31.7381C26.4378 31.66 26.7434 31.5818 27.0491 31.5818C27.3547 31.5818 27.584 31.66 27.8896 31.8163C27.966 31.8163 28.1188 31.7381 28.2717 31.7381H28.3481C29.1886 31.7381 29.6471 32.3636 29.9527 32.9108C30.0291 32.989 30.0291 33.0672 30.1056 33.1454C30.4112 33.6144 30.7933 34.2398 30.7933 34.2398L30.9461 34.5525L30.7169 34.7871C30.564 35.0216 30.3348 35.2561 29.8763 35.2561C29.7999 35.2561 29.7235 35.2561 29.5707 35.2561C29.4943 35.2561 29.4178 35.178 29.3414 35.178C29.3414 35.2561 29.3414 35.3343 29.265 35.4907L28.9594 36.9761C30.6404 36.5852 31.7102 35.2561 31.7102 33.3799L31.9394 27.6729Z" fill="#FFE52B"/>
<path fill-rule="evenodd" clip-rule="evenodd" d="M17.3449 27.2037H28.7303C28.1955 26.5783 28.1955 25.8747 28.3483 25.3275C28.1955 25.2493 28.0426 25.1711 27.8898 25.0148C27.4313 25.3275 26.0559 26.3438 25.7503 26.5783L25.6739 26.6565L21.242 25.7965H21.1655C21.0891 25.7965 20.9363 25.7965 20.7071 25.7965C20.6307 26.0311 20.4778 26.1092 20.325 26.1092H20.2486C20.0958 26.1092 20.0194 26.0311 19.943 25.9529C19.8665 25.8747 19.8665 25.7184 19.8665 25.6402V25.562C19.4081 25.2493 18.9496 24.4675 19.1788 23.6857V23.6076L19.2552 23.5294C19.2552 23.5294 19.3317 23.4512 19.4845 23.373L19.026 23.4512C18.8732 23.4512 18.7968 23.2948 18.8732 23.2167C18.8732 23.0603 19.026 22.9821 19.1024 23.0603L19.8665 23.2167L19.943 20.4023L21.0891 19.1514L21.7768 20.715L21.0127 23.373L21.7004 23.4512C21.8533 23.4512 21.9297 23.6076 21.8533 23.6857C21.8533 23.7639 21.7768 23.8421 21.624 23.8421L21.0891 23.7639C21.0891 23.7639 21.0891 23.7639 21.0891 23.8421C21.1655 23.9984 21.242 24.0766 21.3184 24.0766L24.6805 24.1548C24.8333 23.9984 25.2154 23.6857 25.521 23.2948C24.6805 22.9821 24.3749 22.2004 24.2984 21.7313C23.84 21.4968 23.5343 21.1841 23.3051 20.7932C23.0758 20.3241 23.1523 19.7769 23.2287 19.5423C22.7702 19.386 22.3117 19.0733 21.7768 18.6042H16.6572C16.8865 19.2296 17.0393 19.855 17.0393 20.4805V27.2037H17.3449Z" fill="#FFE52B"/>
<path fill-rule="evenodd" clip-rule="evenodd" d="M22.0065 30.0963C21.93 30.0963 21.8535 30.1745 21.8535 30.2528C21.8535 30.3311 21.93 30.4093 22.0065 30.4093C22.083 30.4093 22.1595 30.3311 22.1595 30.2528C22.1595 30.1745 22.083 30.0963 22.0065 30.0963Z" fill="#262626"/>
<path fill-rule="evenodd" clip-rule="evenodd" d="M28.7308 41.901L28.0431 40.0248C28.8072 39.7902 30.1826 39.243 30.7939 38.8521L30.4119 40.2593L31.7873 40.7284C31.0232 41.1974 29.9534 41.5883 28.7308 41.901ZM24.6046 43.6209C22.9999 43.6209 21.166 43.23 20.6311 43.0737L21.4717 40.8065C22.1594 41.0411 23.5348 41.1974 24.6046 41.1974H24.681C25.6743 41.1974 27.1262 40.9629 27.8139 40.8065L28.6544 43.0737C28.0431 43.23 26.2092 43.6209 24.6046 43.6209ZM17.4218 40.7284L18.7972 40.2593L18.3388 38.9303C18.9501 39.3212 20.3255 39.7902 21.0896 40.1029L20.4019 41.9792C19.2557 41.5883 18.2623 41.1974 17.4218 40.7284ZM31.8637 40.3375L31.0232 40.0248L31.2524 39.1648L31.4816 38.2267C31.4816 38.2267 29.9534 39.0866 27.8903 39.7121C27.279 39.8684 26.8205 39.9466 26.8205 39.9466V40.572C26.8205 40.572 25.6743 40.8065 24.5281 40.8065H24.4517C23.3055 40.8065 22.1594 40.572 22.1594 40.572V39.8684C22.1594 39.8684 21.7009 39.7902 21.0896 39.6339C19.0265 39.0085 17.4982 38.1485 17.4982 38.1485L17.7275 39.0866L17.9567 39.9466L17.1162 40.2593L16.1992 40.6502C17.269 41.1974 18.7208 41.9792 20.0962 42.3701L19.7906 43.23C19.7906 43.23 21.5481 44.0118 24.3753 44.0118H24.4517C27.3554 44.0118 29.0365 43.23 29.0365 43.23L28.7308 42.3701C30.1062 41.9792 31.5581 41.1974 32.6278 40.6502L31.8637 40.3375Z" fill="#262626"/>
<path fill-rule="evenodd" clip-rule="evenodd" d="M21.09 4.06295L21.4721 4.14113L21.6249 3.75024L22.1598 2.73393L23.0767 3.20299L23.4588 3.35935L24.6814 2.10851L25.5983 3.12482L25.904 3.43753L26.2861 3.28117L27.203 2.81211L27.6615 3.90659L27.8143 4.29748L28.1964 4.2193L28.5784 4.14113C28.4256 4.53202 28.2728 4.9229 28.1964 5.23561C27.203 4.68837 25.9804 4.37566 24.6814 4.37566C23.3824 4.37566 22.1598 4.68837 21.1664 5.23561C21.09 4.9229 20.9372 4.53202 20.7844 4.14113L21.09 4.06295ZM24.605 4.76655C26.286 4.76655 27.6615 5.31379 28.4256 5.93921C28.4256 5.93921 28.6548 4.53202 29.4189 3.35935L28.0435 3.5157L27.3558 1.95215L25.9804 2.73393L24.605 1.40491L23.2296 2.73393L21.8541 2.03033L21.1664 3.59388L19.791 3.43753C20.5551 4.68837 20.7844 6.01739 20.7844 6.01739C21.5485 5.39197 22.9239 4.76655 24.605 4.76655Z" fill="#262626"/>
<path fill-rule="evenodd" clip-rule="evenodd" d="M46.3053 28.1418C46.3053 28.1418 45.694 29.2363 44.3186 29.2363C42.7139 29.2363 42.0262 28.22 42.0262 28.22C42.0262 28.22 42.1026 29.549 41.5677 31.3471C40.88 33.5361 41.5677 35.0997 41.5677 35.0997C41.5677 35.0997 41.1857 35.1778 40.7272 35.1778C40.5744 35.1778 40.3451 35.1778 40.1923 35.0997C38.8169 34.7869 38.5113 33.4579 38.5113 33.4579C38.5113 33.4579 38.6641 37.7577 33.6973 37.7577H33.6209C33.6209 37.7577 34.0793 37.1323 34.1558 35.4124C34.385 32.2071 36.5245 31.738 36.5245 31.738C36.5245 31.738 35.3784 31.5817 34.9199 31.1126C34.1558 30.409 34.2322 29.549 34.2322 29.549C35.9897 29.549 37.0594 28.9236 37.9764 27.9073C38.8933 26.8128 39.0461 25.6402 39.0461 25.6402C39.0461 25.6402 38.1292 26.5783 36.2953 26.5783C36.1425 26.5783 35.9897 26.5783 35.7604 26.5783C34.9199 26.5001 34.3086 25.9529 34.3086 25.9529C36.2189 24.702 37.5179 22.5912 36.2953 19.3078C35.3784 16.7279 33.086 14.7735 30.87 13.2881C30.1059 12.819 29.7239 12.2718 29.7239 11.8027C29.7239 10.7082 31.2521 10.7082 31.8634 9.92643C32.5511 9.06648 32.0926 7.73746 31.4813 6.8775C31.4813 6.8775 31.7106 6.79933 32.0162 6.79933C32.6275 6.79933 33.7737 6.95568 34.6906 7.97199C35.9132 9.30101 35.3784 10.7082 35.3784 10.7082L35.684 10.7864C35.9132 10.8646 36.0661 10.8646 36.2953 10.8646C36.3717 10.8646 36.3717 10.8646 36.4481 10.8646C38.2056 10.8646 39.0461 8.9883 39.0461 8.9883C39.0461 8.9883 40.9564 11.4118 38.1292 13.2881C37.6707 13.6008 37.4415 13.9135 37.5179 14.2262L37.5943 14.4607H37.8235C39.8103 15.008 40.88 16.4152 42.1026 18.0569C44.0129 20.5586 46.6874 20.6368 46.993 20.6368C46.993 20.6368 46.3817 22.5912 44.5478 22.5912H44.4714C43.6309 22.5912 43.2488 22.2003 43.2488 22.2003C43.2488 22.2003 43.0196 26.7346 46.3053 28.1418ZM44.7006 23.2166C46.9166 23.2166 47.6807 20.8713 47.6807 20.7931L47.9099 20.0114H47.0694C46.7638 20.0114 44.3186 19.9332 42.6375 17.666L42.4847 17.4315C41.3385 15.9461 40.2687 14.5389 38.3584 13.9135C38.4348 13.8353 38.5113 13.8353 38.5877 13.7571C39.581 13.0535 40.1923 12.2718 40.3451 11.2555C40.5744 9.77008 39.6574 8.67559 39.581 8.59741L38.9697 7.81564L38.5877 8.75377C38.5877 8.83195 37.9 10.3173 36.5245 10.3173H36.4481C36.3717 10.3173 36.2953 10.3173 36.1425 10.3173C36.2189 9.6919 36.0661 8.59741 35.1491 7.65928C34.0793 6.48662 32.7039 6.33026 32.0162 6.33026C31.6342 6.33026 31.4049 6.40844 31.4049 6.40844L30.5644 6.56479L31.1757 7.34657C31.6342 7.97199 32.0162 9.06648 31.5577 9.61372C31.4049 9.77008 31.0993 9.92643 30.7936 10.0828C30.1823 10.3955 29.3418 10.7864 29.3418 11.8027C29.3418 12.5063 29.8767 13.2099 30.7936 13.7571C33.5445 15.5552 35.2255 17.3533 35.9897 19.4641C37.1358 22.5912 35.6076 24.3893 34.2322 25.3274L33.3916 25.7965L33.9265 26.3438C34.0029 26.4219 34.6906 27.0473 35.684 27.1255C35.9132 27.1255 36.0661 27.1255 36.2189 27.1255C36.9066 27.1255 37.4415 27.0473 37.9 26.891C37.7471 27.1255 37.5943 27.3601 37.4415 27.5946C36.6009 28.6109 35.6076 29.0018 34.1558 29.08H33.6209V29.6272C33.6209 29.7054 33.5445 30.7999 34.5378 31.6598C34.6906 31.8162 34.8435 31.8944 35.0727 31.9725C34.385 32.598 33.7737 33.6143 33.6209 35.4124C33.5445 36.8977 33.1624 37.445 33.1624 37.445L32.5511 38.3831H33.6209C35.3784 38.3831 36.7538 37.914 37.7471 36.8977C38.282 36.2723 38.6641 35.6469 38.8169 35.0215C39.1226 35.256 39.5046 35.5687 40.0395 35.6469C40.2687 35.7251 40.4216 35.7251 40.7272 35.7251C41.2621 35.7251 41.6441 35.6469 41.7206 35.5687L42.4083 35.4124L42.1026 34.7869C42.1026 34.7088 41.4913 33.3797 42.1026 31.5035C42.3319 30.7217 42.4847 29.9399 42.5611 29.3927C43.0196 29.6272 43.5545 29.7836 44.3186 29.7836C45.9996 29.7836 46.7638 28.4545 46.8402 28.4545L47.1458 27.8291L46.5345 27.5946C44.4714 26.7346 44.0129 24.3893 43.9365 23.1385C44.0893 23.1385 44.3186 23.2166 44.5478 23.2166H44.7006Z" fill="#262626"/>
<path fill-rule="evenodd" clip-rule="evenodd" d="M42.1784 13.288C42.5604 13.288 43.0953 13.4444 43.5538 13.9134C45.0056 15.3988 46.3046 15.477 46.3046 15.477C46.0754 16.0242 45.3877 16.4933 44.6236 16.4933C44.4707 16.4933 44.3179 16.4933 44.0887 16.4151C43.0953 16.1024 42.7897 14.5389 41.0322 13.6007C41.1086 13.6789 41.5671 13.288 42.1784 13.288ZM40.8029 14.2262C41.6435 14.6952 42.102 15.3206 42.5604 15.7897C42.9425 16.3369 43.401 16.806 44.0123 17.0405C44.2415 17.1187 44.4707 17.1187 44.7 17.1187C45.6169 17.1187 46.5339 16.5715 46.9159 15.7115L47.298 14.9298L46.4574 14.8516C46.381 14.8516 45.3113 14.7734 44.0887 13.4444C43.5538 12.8971 42.9425 12.6626 42.3312 12.6626C41.4907 12.6626 40.9558 13.0535 40.8794 13.1317L40.1152 13.6789L40.8029 14.2262Z" fill="#262626"/>
<path fill-rule="evenodd" clip-rule="evenodd" d="M41.1858 22.2003C40.6509 18.1351 37.7473 15.1643 34.5379 13.3662C34.2323 13.2099 33.9266 13.0535 33.6974 12.8972C34.6908 13.0535 36.2954 13.0535 37.518 11.959C37.518 11.959 35.6077 13.3662 31.7871 12.1154C32.8569 12.819 34.92 13.8353 36.8303 15.477C41.5679 19.6986 38.2057 23.8421 38.2057 23.8421C39.8868 22.044 39.9632 20.0895 39.5047 18.526C40.4217 20.0113 40.9566 21.8876 40.8802 24.1548C40.7273 27.4382 38.9699 30.2526 37.136 32.5198C36.219 33.6143 36.0662 34.9433 36.0662 34.9433C36.0662 34.9433 36.4483 33.7706 37.4416 32.5198C39.4283 30.1744 41.1094 27.6728 41.3386 24.1548C41.5679 24.7802 42.4084 26.5783 43.7074 27.2819C43.631 27.2819 41.9499 26.2656 41.1858 22.2003Z" fill="#262626"/>
<path fill-rule="evenodd" clip-rule="evenodd" d="M15.5134 37.7577C10.6231 37.7577 10.6995 33.4579 10.6995 33.4579C10.6995 33.4579 10.3938 34.7088 9.01841 35.0997C8.86558 35.1778 8.71276 35.1778 8.48352 35.1778C8.02505 35.1778 7.64299 35.0997 7.64299 35.0997C7.64299 35.0997 8.3307 33.5361 7.64299 31.3471C7.03169 29.549 7.18452 28.22 7.18452 28.22C7.18452 28.22 6.49681 29.2363 4.89215 29.2363C3.51673 29.2363 2.90544 28.1418 2.90544 28.1418C6.19116 26.7346 5.88551 22.2785 5.88551 22.2785C5.88551 22.2785 5.42704 22.5912 4.5865 22.5912H4.51009C2.6762 22.5912 2.0649 20.6368 2.0649 20.6368C2.37055 20.6368 5.04498 20.5586 6.95528 18.0569C8.17788 16.4152 9.24764 15.008 11.2344 14.4607H11.4636L11.54 14.2262C11.6164 13.9135 11.3872 13.6008 10.9287 13.2881C8.10146 11.4118 10.0118 8.98831 10.0118 8.98831C10.0118 8.98831 10.7759 10.8646 12.6098 10.8646C12.6862 10.8646 12.6862 10.8646 12.7626 10.8646C12.9918 10.8646 13.1447 10.8646 13.3739 10.7864L13.6795 10.7082C13.6795 10.7082 13.1447 9.30102 14.3673 7.972C15.2842 6.95569 16.4304 6.79934 17.0417 6.79934C17.3473 6.79934 17.5766 6.87751 17.5766 6.87751C16.9653 7.73747 16.5068 9.06649 17.1945 9.92644C17.8058 10.63 19.334 10.7082 19.334 11.8027C19.334 12.2718 18.952 12.819 18.1879 13.2881C15.8955 14.7735 13.6796 16.6497 12.7626 19.3078C11.6164 22.5131 12.9154 24.702 14.8257 25.9529C14.8257 25.9529 14.2144 26.5001 13.3739 26.5783C13.2211 26.5783 13.0683 26.5783 12.839 26.5783C11.0051 26.5783 10.0882 25.7183 10.0882 25.7183C10.0882 25.7183 10.241 26.891 11.1579 27.9855C11.9985 29.0018 13.1447 29.6272 14.9021 29.6272C14.9021 29.6272 14.9786 30.4872 14.2144 31.1908C13.756 31.6598 12.6098 31.8162 12.6098 31.8162C12.6098 31.8162 14.7493 32.2853 14.9786 35.4905C15.1314 37.1323 15.5899 37.7577 15.5134 37.7577ZM16.0483 37.445C16.0483 37.445 15.6663 36.8977 15.5899 35.4124C15.437 33.6143 14.8257 32.598 14.138 31.9726C14.2908 31.8944 14.5201 31.738 14.6729 31.6598C15.5899 30.7999 15.5899 29.7836 15.5899 29.6272V29.08H15.055C13.6031 29.08 12.6098 28.6109 11.7692 27.5946C11.54 27.3601 11.3872 27.1255 11.3108 26.891C11.7692 27.0474 12.3041 27.1255 12.9918 27.1255C13.1447 27.1255 13.3739 27.1255 13.5267 27.1255C14.5201 27.0474 15.2078 26.4219 15.2842 26.3438L15.8191 25.7965L15.2078 25.4056C13.756 24.4675 12.2277 22.6694 13.3739 19.5423C14.138 17.5097 15.8191 15.6334 18.5699 13.8353C19.4869 13.2099 20.0218 12.5063 20.0218 11.8809C20.0218 10.8646 19.1812 10.3955 18.5699 10.161C18.2643 10.0046 17.9586 9.84827 17.8058 9.69191C17.3473 9.14467 17.7294 8.05018 18.1879 7.42476L18.7992 6.64298L17.8822 6.48663C17.8822 6.48663 17.5766 6.40845 17.2709 6.40845C16.5832 6.40845 15.2078 6.5648 14.138 7.73747C13.0683 8.59742 12.9918 9.61373 12.9918 10.3173C12.9154 10.3173 12.839 10.3173 12.6862 10.3173H12.6098C11.2344 10.3173 10.6231 8.83196 10.5467 8.75378L10.241 7.81565L9.62971 8.59742C9.62971 8.6756 8.71276 9.77009 8.942 11.2555C9.09482 12.1936 9.70612 13.0536 10.6995 13.7572C10.7759 13.8353 10.8523 13.9135 10.9287 13.9135C9.01841 14.5389 7.94864 15.9461 6.80246 17.4315L6.64963 17.666C4.89215 19.9332 2.44696 20.0114 2.14131 20.0114H1.30078L1.53002 20.7931C1.53002 20.8713 2.29414 23.2167 4.51009 23.2167H4.5865C4.81574 23.2167 5.04498 23.1385 5.1978 23.1385C5.12139 24.3893 4.66292 26.7346 2.59979 27.5946L1.98849 27.8291L2.29414 28.4546C2.29414 28.5327 3.05826 29.7836 4.81574 29.7836C5.57986 29.7836 6.11475 29.6272 6.57322 29.3927C6.64963 29.9399 6.80246 30.7217 7.03169 31.5035C7.64299 33.3797 7.1081 34.7088 7.03169 34.7869L6.87887 35.4124L7.56658 35.5687C7.64299 35.5687 8.02505 35.7251 8.55994 35.7251C8.78917 35.7251 9.01841 35.7251 9.17123 35.6469C9.70612 35.4905 10.0882 35.256 10.3938 35.0215C10.5467 35.6469 10.9287 36.2723 11.4636 36.8977C12.3805 37.9141 13.756 38.3831 15.5899 38.3831H16.6596L16.0483 37.445Z" fill="#262626"/>
<path fill-rule="evenodd" clip-rule="evenodd" d="M5.65461 13.9136C6.11308 13.4446 6.57155 13.2882 7.03003 13.2882C7.64132 13.2882 8.17621 13.6009 8.17621 13.6009C6.41873 14.5391 6.11308 16.0244 5.11972 16.4153C4.9669 16.4935 4.81407 16.4935 4.58484 16.4935C3.89713 16.4935 3.13301 16.0244 2.90377 15.4772C2.90377 15.4772 4.20278 15.399 5.65461 13.9136ZM4.58484 17.1189C4.81407 17.1189 5.04331 17.1189 5.27255 17.0407C5.88384 16.8062 6.2659 16.3371 6.72438 15.7899C7.18285 15.2427 7.64132 14.6172 8.48186 14.2263L9.32239 13.7573L8.55827 13.21C8.48186 13.1319 7.87056 12.741 7.10644 12.741C6.41873 12.741 5.80743 13.0537 5.34896 13.5227C4.12636 14.7736 3.05659 14.9299 2.98018 14.9299L2.13965 15.0081L2.52171 15.7899C2.75095 16.5717 3.66789 17.1189 4.58484 17.1189Z" fill="#262626"/>
<path fill-rule="evenodd" clip-rule="evenodd" d="M8.40513 24.1548C8.32872 21.8876 8.86361 20.0113 9.78055 18.526C9.24567 20.0895 9.32208 22.044 11.0796 23.8421C11.0796 23.8421 7.71743 19.6986 12.455 15.477C14.3653 13.8353 16.4284 12.8972 17.4982 12.1154C13.6776 13.3662 11.7673 11.959 11.7673 11.959C12.9899 13.0535 14.5945 13.0535 15.5879 12.8972C15.3586 13.0535 15.053 13.1317 14.7473 13.3662C11.538 15.1643 8.55796 18.1351 8.09949 22.2785C7.33536 26.3437 5.6543 27.3601 5.6543 27.3601C6.9533 26.6565 7.79384 24.8584 8.02307 24.2329C8.25231 27.7509 9.93338 30.2526 11.9201 32.598C12.9135 33.8488 13.2955 35.0215 13.2955 35.0215C13.2955 35.0215 13.0663 33.6924 12.2257 32.598C10.3154 30.2526 8.55796 27.4382 8.40513 24.1548Z" fill="#262626"/>
<path fill-rule="evenodd" clip-rule="evenodd" d="M23.5352 15.8679V16.6497C23.8408 16.337 24.3757 16.4152 24.3757 16.4152V17.5878C24.3757 17.5878 24.3757 18.1351 24.1465 18.4478H25.2162C24.987 18.2133 24.987 17.5878 24.987 17.5878V16.4152C24.987 16.4152 25.5219 16.337 25.8275 16.6497V15.8679H23.5352Z" fill="#262626"/>
<path fill-rule="evenodd" clip-rule="evenodd" d="M22.999 11.0208C23.3811 11.3335 23.6103 11.3335 23.6103 11.4117L23.7631 11.4898V10.7081L22.3877 10.1608C22.3877 10.0826 22.3877 10.5517 22.999 11.0208Z" fill="#262626"/>
<path fill-rule="evenodd" clip-rule="evenodd" d="M26.2085 11.021C26.8198 10.552 26.8198 10.0829 26.8198 10.0829L25.4443 10.6301V11.4119L25.5972 11.3337C25.6736 11.3337 25.8264 11.3337 26.2085 11.021Z" fill="#262626"/>
<path fill-rule="evenodd" clip-rule="evenodd" d="M24.6033 8.98836L21.394 7.65934C21.6996 6.95574 22.9222 6.40849 24.6033 6.40849C26.2844 6.40849 27.5834 6.95574 27.889 7.65934L24.6033 8.98836ZM27.0485 13.0536L24.8325 14.2263V9.45742L27.8126 8.44111L27.0485 13.0536ZM28.4239 14.3826L29.4173 15.008L29.6465 15.1644C29.1116 15.3208 28.6532 15.6335 28.2711 16.0244C28.2711 16.0244 28.2711 16.0244 28.1947 16.1025C28.1183 16.1807 28.0419 16.2589 27.9654 16.4152C27.9654 16.4152 27.9654 16.4152 27.889 16.4934C27.8126 16.5716 27.7362 16.7279 27.6598 16.8061C27.6598 16.8061 27.6598 16.8061 27.6598 16.8843C27.5834 17.0407 27.507 17.1188 27.4306 17.2752C26.7428 18.526 25.5967 19.3078 24.6033 19.3078C23.61 19.3078 22.4638 18.526 21.7761 17.2752C21.6996 17.1188 21.6232 17.0407 21.5468 16.8843C21.5468 16.8843 21.5468 16.8061 21.4704 16.8061C21.394 16.7279 21.3176 16.5716 21.2412 16.4934C21.2412 16.4934 21.2412 16.4152 21.1648 16.4152C21.0883 16.3371 21.0119 16.2589 20.9355 16.1025C20.9355 16.1025 20.9355 16.1025 20.8591 16.0244C20.4771 15.6335 20.095 15.3208 19.4837 15.1644L19.7129 15.008L20.7063 14.3826L21.6996 13.7572L24.4505 15.3208L27.2013 13.7572L28.4239 14.3826ZM32.3209 18.6042C32.0917 19.2296 31.9389 19.8551 31.9389 20.4805V24.7021C31.0983 24.5457 30.9455 23.6076 30.9455 23.6076V23.4512H30.7927C30.4106 23.4512 30.1814 23.2167 29.9522 23.0603C29.5701 22.5913 29.4937 21.9659 29.5701 21.8877C29.5701 21.8877 29.1116 22.5913 29.6465 23.2949C29.8757 23.6076 30.1814 23.7639 30.6399 23.8421C30.7163 24.3894 31.0983 25.093 32.0153 25.2493V27.2819H29.4937C28.3475 26.5783 28.806 25.4839 28.8824 25.4057L28.9588 25.1711L28.6532 25.0148C27.3541 24.5457 27.7362 23.2167 27.7362 23.2167L27.8126 23.0603L27.6598 22.9822C26.59 22.5131 26.7428 21.1841 26.7428 21.1059C26.4372 21.3404 26.2844 21.8877 26.5136 22.4349C26.3608 22.5913 26.208 22.7476 26.0551 22.904C24.9854 22.5913 24.909 21.575 24.909 21.575V21.4186L24.7561 21.3404C24.2977 21.1841 24.0684 20.9495 23.9156 20.6368C23.7628 20.2459 23.8392 19.9332 23.8392 19.6987C23.992 19.6987 24.0684 19.7769 24.2212 19.7769C24.3741 19.7769 24.4505 19.7769 24.6033 19.7769C24.7561 19.7769 24.8325 19.7769 24.9854 19.7769C25.6731 19.6987 26.4372 19.386 27.2013 18.6042H32.3209ZM29.188 36.8978L29.4937 35.4124C29.4937 35.3342 29.4937 35.2561 29.5701 35.0997C29.6465 35.0997 29.7229 35.1779 29.7993 35.1779C29.8757 35.1779 30.0286 35.1779 30.105 35.1779C30.5635 35.1779 30.7927 34.9434 30.9455 34.7088L31.1748 34.4743L31.0219 34.1616C31.0219 34.1616 30.6399 33.5362 30.3342 33.0671C30.2578 32.9889 30.1814 32.9107 30.1814 32.8326C29.8757 32.2853 29.4173 31.6599 28.5767 31.6599H28.5003C28.3475 31.6599 28.2711 31.6599 28.1183 31.7381C27.8126 31.5817 27.5834 31.5035 27.2777 31.5035C26.8957 31.5035 26.59 31.5817 26.4372 31.6599C26.3608 31.6599 26.3608 31.6599 26.2844 31.7381L24.6797 31.5817C24.6797 31.5817 24.6033 31.5035 24.5269 31.4254L24.909 31.269C24.8325 30.0963 23.6864 29.3146 23.0751 29.08C23.0751 28.9237 22.9987 28.8455 22.9222 28.7673L22.5402 28.4546L22.0817 28.9237L21.9289 29.08L19.6365 28.1419L21.0883 30.0182L20.4771 30.8781C20.2478 31.1126 20.4771 31.3472 20.4771 31.3472L21.0883 31.7381L21.6996 31.5035H21.7761C21.7761 31.5817 21.6996 31.9726 21.6996 32.0508L20.6299 31.8162L19.4837 32.4417C18.8724 32.9107 18.796 33.6143 19.0252 34.0834L19.178 34.3961L19.3309 34.787L19.7129 34.6306C19.5601 35.0997 19.6365 35.5688 19.8658 35.8033L20.095 36.116L20.4006 36.5069L20.7827 36.116C20.8591 36.0378 21.2412 35.647 21.3176 35.3342L21.394 35.0997L21.2412 34.9434L21.4704 34.6306L22.8458 34.9434L23.1515 35.0215L23.3043 34.7088L23.3807 34.5525C23.3807 34.5525 23.3807 34.5525 23.4571 34.5525C23.5335 34.5525 23.5335 34.5525 23.6099 34.5525C24.1448 34.6306 24.6033 34.7088 25.0618 34.7088C25.4438 34.7088 25.7495 34.7088 26.0551 34.5525C26.0551 34.5525 26.8193 35.4124 26.8193 35.4906L26.3608 36.976V37.0542C25.5203 37.1323 25.0618 37.2887 24.5269 37.8359C23.7628 37.0542 23.2279 36.976 21.2412 36.976C18.8724 36.976 17.1913 35.5688 17.1913 33.2234V27.5946H31.786V33.2234C31.9389 35.1779 30.8691 36.5069 29.188 36.8978ZM20.1714 33.6925L20.2478 33.8489C20.1714 34.0052 19.6365 34.2398 19.6365 34.2398L19.4837 33.927C19.3309 33.6143 19.4073 33.1453 19.7893 32.8326L20.7063 32.2853L21.6996 32.5198C21.6996 32.8326 21.8525 33.0671 21.8525 33.0671L20.8591 32.8326L20.2478 33.3016C20.095 33.458 20.095 33.6143 20.1714 33.6925ZM29.0352 35.3342L28.7296 37.0542C28.5003 37.0542 28.3475 37.1323 28.1183 37.1323L28.4239 35.4906C28.5003 35.0215 27.2777 34.8652 26.6664 33.927C26.3608 34.2398 25.8259 34.3961 25.2146 34.3961C24.6797 34.3961 24.1448 34.3179 23.8392 34.2398C23.7628 34.2398 23.6864 34.2398 23.6099 34.2398C23.4571 34.2398 23.2279 34.3179 23.1515 34.4743L23.0751 34.6306L21.394 34.2398L20.9355 34.9434C20.8591 35.0997 20.8591 35.1779 20.9355 35.2561L21.0883 35.4124C21.0119 35.6469 20.6299 36.0378 20.6299 36.0378L20.4006 35.7251C20.1714 35.4906 20.2478 35.0997 20.4771 34.7088L21.1648 33.5362L22.6166 33.7707L22.3874 33.2234C22.0817 32.5198 22.5402 31.6599 22.6166 31.1126C22.6166 31.269 22.4638 31.269 22.3109 31.269C22.1581 31.269 22.0053 31.269 21.9289 31.269C21.8525 31.269 21.8525 31.269 21.8525 31.269L21.4704 31.5035L21.1648 31.1908C21.1648 31.1126 21.0883 31.0345 21.2412 30.8781L21.9289 30.0182L21.0883 29.0018L22.3109 29.6273L22.693 29.1582C22.7694 29.2364 22.7694 29.5491 22.7694 29.5491C23.1515 29.5491 24.1448 30.1745 24.2212 31.5035C24.2212 31.5817 24.2212 31.5817 24.2212 31.6599C24.2212 31.6599 24.2212 31.6599 24.2212 31.7381C24.2977 31.8162 24.5269 32.129 24.7561 32.129L26.4372 32.2853C26.59 32.2853 26.9721 32.0508 27.4306 32.0508C27.6598 32.0508 27.9654 32.129 28.2711 32.2853C28.2711 32.2853 28.4239 32.129 28.6532 32.129H28.7296C29.4937 32.129 29.7993 32.8326 30.1814 33.3798C30.487 33.8489 30.8691 34.4743 30.8691 34.4743C30.7163 34.6306 30.5635 34.787 30.3342 34.787C30.2578 34.787 30.1814 34.787 30.105 34.787C29.3409 34.6306 29.188 32.9889 28.7296 32.8326H28.6532C28.5003 32.8326 28.4239 32.9889 28.4239 32.9889C28.6532 33.5362 28.5003 33.7707 28.7296 34.2398C28.8824 34.5525 29.188 34.8652 29.3409 34.9434C29.1116 34.8652 29.0352 35.0997 29.0352 35.3342ZM27.507 37.0542C27.2777 37.0542 27.0485 37.0542 26.8957 37.0542L27.3541 35.4906C27.4306 35.2561 27.0485 35.0215 26.8957 34.787C27.1249 34.9434 27.7362 35.2561 28.0419 35.4124C28.0419 35.4906 27.507 37.0542 27.507 37.0542ZM20.3242 23.2167L20.4006 20.5587L21.0119 19.9332L21.394 20.715L20.6299 23.2167H20.3242ZM20.7827 23.9985C20.8591 24.233 21.0883 24.3112 21.1648 24.3894C21.1648 24.5457 21.1648 24.8584 21.0883 25.1711C21.0883 25.2493 21.0883 25.2493 21.0119 25.3275V25.4057C20.8591 25.4057 20.4771 25.4057 20.1714 25.2493C19.8658 25.093 19.4073 24.5457 19.4837 23.8421C19.6365 23.7639 19.9422 23.6076 20.2478 23.6076C20.4771 23.6858 20.6299 23.7639 20.7827 23.9985ZM27.507 24.7803C27.0485 25.093 25.9023 25.9529 25.4438 26.2656L21.394 25.4839V25.4057C21.4704 25.1711 21.4704 24.8584 21.4704 24.5457L24.909 24.6239L24.9854 24.5457C25.0618 24.4675 26.1316 23.4512 26.6664 22.8258C26.8193 22.9822 26.9721 23.1385 27.2013 23.2949C27.2013 23.6858 27.2013 24.233 27.507 24.7803ZM22.0053 18.6042C22.4638 19.0733 22.9987 19.386 23.4571 19.5423C23.3807 19.7769 23.3043 20.2459 23.5335 20.7932C23.6864 21.1841 24.0684 21.4968 24.5269 21.7313C24.6033 22.2004 24.909 22.9822 25.7495 23.2949C25.3674 23.6858 25.0618 23.9985 24.909 24.1548L21.394 24.0767C21.3176 23.9985 21.1648 23.9203 21.1648 23.8421C21.1648 23.8421 21.1648 23.8421 21.1648 23.7639L21.6996 23.8421C21.7761 23.8421 21.9289 23.7639 21.9289 23.6858C21.9289 23.5294 21.8525 23.4512 21.7761 23.4512L21.0883 23.3731L21.8525 20.715L21.1648 19.1515L19.9422 20.3241L19.8658 23.1385L19.1016 22.9822C18.9488 22.9822 18.8724 23.0603 18.8724 23.1385C18.8724 23.2949 18.9488 23.3731 19.0252 23.3731L19.3309 23.4512C19.178 23.5294 19.1016 23.6076 19.1016 23.6076V23.6858V23.7639C18.9488 24.5457 19.3309 25.2493 19.7893 25.6402V25.7184C19.7893 25.8747 19.7893 25.9529 19.8658 26.0311C19.9422 26.1093 20.0186 26.1875 20.1714 26.1875H20.2478C20.4771 26.1875 20.6299 26.0311 20.7063 25.8747C20.8591 25.8747 21.0119 25.8747 21.1648 25.8747H21.2412L25.6731 26.7347L25.7495 26.6565C26.1316 26.422 27.4306 25.4057 27.889 25.093C28.0419 25.1711 28.1183 25.3275 28.3475 25.4057C28.1947 25.8747 28.1947 26.6565 28.7296 27.2819H17.3442V20.5587C17.3442 19.9332 17.1913 19.2296 16.9621 18.6824H22.0053V18.6042ZM21.394 8.44111L24.3741 9.45742V14.2263L22.1581 13.0536L21.394 8.44111ZM28.6532 7.89387C28.6532 6.72121 26.7428 5.7049 24.6033 5.7049C22.4638 5.7049 20.5535 6.72121 20.5535 7.89387L20.6299 8.20658L21.4704 13.1318L20.6299 13.679L18.4139 15.008C18.4139 15.008 17.9555 15.2426 17.7262 15.3989C16.8857 16.0244 16.7329 16.8843 17.1913 17.197C17.3442 16.4934 17.879 15.7898 18.8724 15.7898C19.6365 15.7898 20.1714 16.1807 20.6299 16.7279C20.7827 16.8843 20.8591 17.0407 20.9355 17.197C21.0883 17.4315 21.1648 17.5879 21.3176 17.7443H15.6631C16.0451 18.6042 16.5036 19.5423 16.5036 20.4805V33.3016C16.5036 36.4287 18.796 37.9141 21.3176 37.9141C23.2279 37.9141 23.5335 37.8359 24.6033 38.9304C25.6731 37.8359 25.9023 37.9141 27.889 37.9141C30.4106 37.9141 32.703 36.4287 32.703 33.3016V20.4805C32.703 19.4642 33.0851 18.6042 33.5435 17.7443H27.889C28.0419 17.5879 28.1183 17.3534 28.2711 17.197C28.3475 17.0407 28.5003 16.8843 28.5767 16.7279C29.0352 16.1807 29.5701 15.7898 30.3342 15.7898C31.3276 15.7898 31.8625 16.4934 32.0153 17.197C32.4738 16.8061 32.3209 15.9462 31.4804 15.3989C31.2512 15.2426 30.7927 15.008 30.7927 15.008L28.5767 13.679L27.7362 13.21L28.5767 8.28476L28.6532 7.89387Z" fill="#262626"/>
<path d="M64.9504 29.2362H68.771V20.0112H74.1199V16.6496H59.6016V20.0112H64.9504V29.2362Z" fill="#262626"/>
<path d="M85.9648 16.6496L79.4698 23.9983V16.6496H75.7256V29.2362H79.0113L85.5063 21.8875V29.2362H89.2505V16.6496H85.9648Z" fill="#262626"/>
<path d="M95.8204 24.5455H101.857V29.2362H105.601V16.6496H101.857V21.2621H95.8204V16.6496H92.0762V29.2362H95.8204V24.5455Z" fill="#262626"/>
<path d="M116.07 29.2362C116.91 29.2362 117.674 29.158 118.438 28.9235C120.349 28.3763 121.648 26.7345 121.648 24.5455C121.648 22.4347 120.578 21.0275 118.821 20.3239C117.98 20.0112 116.987 20.0112 116.07 20.0112H112.173V16.6496H108.505V29.2362H116.07ZM112.249 22.982H115.458C115.993 22.982 116.452 22.982 116.91 23.1383C117.522 23.3729 117.904 23.8419 117.904 24.5455C117.904 25.171 117.522 25.7964 116.91 26.0309C116.528 26.1873 116.07 26.1873 115.458 26.1873H112.249V22.982Z" fill="#262626"/>
<path d="M127.38 24.4674H128.45L132.958 29.2362H137.925L131.659 22.6693L137.696 16.6496H132.958L128.45 21.4184H127.38V16.6496H123.636V29.2362H127.38V24.4674Z" fill="#262626"/>
<path d="M145.642 16.2589C140.598 16.2589 137.542 19.1514 137.542 22.904C137.542 26.6565 140.598 29.5491 145.642 29.5491C150.685 29.5491 153.665 26.6565 153.665 22.904C153.665 19.1514 150.608 16.2589 145.642 16.2589ZM145.642 26.5783C143.12 26.5783 141.515 25.0148 141.515 22.9821C141.515 20.9495 143.12 19.386 145.642 19.386C148.163 19.386 149.768 20.8713 149.768 22.9821C149.692 25.0148 148.087 26.5783 145.642 26.5783Z" fill="#262626"/>
<path d="M166.197 17.1969V15.9461H162.453V17.1969C157.715 17.2751 154.888 19.3077 154.888 22.9821C154.888 26.5783 157.715 28.4545 162.453 28.6109V29.8617H166.197V28.6109C170.934 28.5327 173.761 26.6564 173.761 22.9821C173.761 19.3077 170.934 17.2751 166.197 17.1969ZM162.453 25.7965C159.854 25.7183 158.708 24.6238 158.708 22.9039C158.708 21.184 159.854 20.0113 162.453 19.855V25.7965ZM166.197 25.7965V19.855C168.795 19.9332 169.941 21.184 169.941 22.9039C169.941 24.6238 168.795 25.7183 166.197 25.7965Z" fill="#262626"/>
<path d="M186.217 17.1969V15.9461H182.473V17.1969C177.735 17.2751 174.908 19.3077 174.908 22.9821C174.908 26.5783 177.735 28.4545 182.473 28.6109V29.8617H186.217V28.6109C190.955 28.5327 193.782 26.6564 193.782 22.9821C193.782 19.3077 190.955 17.2751 186.217 17.1969ZM182.473 25.7965C179.875 25.7183 178.729 24.6238 178.729 22.9039C178.729 21.184 179.875 20.0113 182.473 19.855V25.7965ZM186.217 25.7965V19.855C188.815 19.9332 189.961 21.184 189.961 22.9039C189.961 24.6238 188.892 25.7183 186.217 25.7965Z" fill="#262626"/>
</svg>
