<svg width="43" height="43" viewBox="0 0 43 43" fill="none" xmlns="http://www.w3.org/2000/svg">
<circle cx="21.8174" cy="21.2612" r="16" fill="white"/>
<path d="M20.6361 21.2612L24.7924 17.105C25.1132 16.7841 25.2736 16.3828 25.2736 15.901C25.2736 15.4191 25.1132 15.0038 24.7924 14.655C24.4424 14.305 24.0265 14.13 23.5446 14.13C23.0628 14.13 22.6475 14.305 22.2986 14.655L16.9174 20.0362C16.5674 20.3862 16.3924 20.7946 16.3924 21.2612C16.3924 21.7279 16.5674 22.1362 16.9174 22.4862L22.3424 27.9112C22.6924 28.2612 23.1007 28.4286 23.5674 28.4135C24.034 28.3983 24.4424 28.2163 24.7924 27.8675C25.1132 27.5175 25.2812 27.1091 25.2964 26.6425C25.3116 26.1758 25.1436 25.7675 24.7924 25.4175L20.6361 21.2612ZM21.8174 3.76123C24.2382 3.76123 26.5132 4.2209 28.6424 5.14023C30.7716 6.05956 32.6236 7.30615 34.1986 8.87998C35.7736 10.455 37.0202 12.3071 37.9384 14.4362C38.8566 16.5654 39.3162 18.8404 39.3174 21.2612C39.3174 23.6821 38.8577 25.9571 37.9384 28.0862C37.019 30.2154 35.7725 32.0675 34.1986 33.6425C32.6236 35.2175 30.7715 36.4641 28.6424 37.3822C26.5132 38.3004 24.2382 38.7601 21.8174 38.7612C19.3965 38.7612 17.1215 38.3016 14.9924 37.3822C12.8632 36.4629 11.0111 35.2163 9.43613 33.6425C7.86113 32.0675 6.61397 30.2154 5.69463 28.0862C4.7753 25.9571 4.31622 23.6821 4.31738 21.2612C4.31738 18.8404 4.77705 16.5654 5.69639 14.4362C6.61572 12.3071 7.8623 10.455 9.43613 8.87998C11.0111 7.30498 12.8632 6.05781 14.9924 5.13848C17.1216 4.21914 19.3966 3.76006 21.8174 3.76123ZM21.8174 7.26123C17.9091 7.26123 14.5986 8.61748 11.8861 11.33C9.17364 14.0425 7.81738 17.3529 7.81738 21.2612C7.81738 25.1696 9.17363 28.48 11.8861 31.1925C14.5986 33.905 17.9091 35.2612 21.8174 35.2612C25.7257 35.2612 29.0361 33.905 31.7486 31.1925C34.4611 28.48 35.8174 25.1696 35.8174 21.2612C35.8174 17.3529 34.4611 14.0425 31.7486 11.33C29.0361 8.61748 25.7257 7.26123 21.8174 7.26123Z" fill="#262626"/>
</svg>
