<svg width="43" height="43" viewBox="0 0 43 43" fill="none" xmlns="http://www.w3.org/2000/svg">
<circle cx="21.083" cy="21.5762" r="16" transform="rotate(-180 21.083 21.5762)" fill="white"/>
<path d="M22.2643 21.5762L18.108 25.7324C17.7872 26.0533 17.6268 26.4546 17.6268 26.9364C17.6268 27.4183 17.7872 27.8336 18.108 28.1824C18.458 28.5324 18.8739 28.7074 19.3558 28.7074C19.8376 28.7074 20.2529 28.5324 20.6018 28.1824L25.983 22.8012C26.333 22.4512 26.508 22.0428 26.508 21.5762C26.508 21.1095 26.333 20.7012 25.983 20.3512L20.558 14.9262C20.208 14.5762 19.7997 14.4088 19.333 14.4239C18.8663 14.4391 18.458 14.6211 18.108 14.9699C17.7872 15.3199 17.6192 15.7283 17.604 16.1949C17.5888 16.6616 17.7568 17.0699 18.108 17.4199L22.2643 21.5762ZM21.083 39.0762C18.6622 39.0762 16.3872 38.6165 14.258 37.6972C12.1288 36.7778 10.2768 35.5313 8.70175 33.9574C7.12675 32.3824 5.88017 30.5303 4.962 28.4012C4.04384 26.272 3.58417 23.997 3.583 21.5762C3.58301 19.1553 4.04267 16.8803 4.96201 14.7512C5.88134 12.622 7.12792 10.7699 8.70176 9.19492C10.2768 7.61992 12.1288 6.37334 14.258 5.45517C16.3872 4.53701 18.6622 4.07734 21.083 4.07617C23.5038 4.07618 25.7788 4.53584 27.908 5.45518C30.0372 6.37451 31.8893 7.62109 33.4643 9.19493C35.0393 10.7699 36.2864 12.622 37.2058 14.7512C38.1251 16.8803 38.5842 19.1553 38.583 21.5762C38.583 23.997 38.1233 26.272 37.204 28.4012C36.2847 30.5303 35.0381 32.3824 33.4643 33.9574C31.8893 35.5324 30.0372 36.7796 27.908 37.6989C25.7788 38.6183 23.5038 39.0773 21.083 39.0762ZM21.083 35.5762C24.9913 35.5762 28.3018 34.2199 31.0143 31.5074C33.7268 28.7949 35.083 25.4845 35.083 21.5762C35.083 17.6678 33.7268 14.3574 31.0143 11.6449C28.3018 8.93243 24.9913 7.57618 21.083 7.57617C17.1747 7.57617 13.8643 8.93242 11.1518 11.6449C8.43926 14.3574 7.08301 17.6678 7.083 21.5762C7.083 25.4845 8.43925 28.7949 11.1518 31.5074C13.8643 34.2199 17.1747 35.5762 21.083 35.5762Z" fill="#262626"/>
</svg>
